<?xml version="1.0" encoding="UTF-8" standalone="no"?>
<!DOCTYPE svg PUBLIC "-//W3C//DTD SVG 1.1//EN"
 "http://www.w3.org/Graphics/SVG/1.1/DTD/svg11.dtd">
<!-- Generated by graphviz version 11.0.0 (20240428.1522)
 -->
<!-- Title: dependency&#45;cruiser output Pages: 1 -->
<svg width="805pt" height="255pt"
 viewBox="0.00 0.00 805.00 255.47" xmlns="http://www.w3.org/2000/svg" xmlns:xlink="http://www.w3.org/1999/xlink">
<g id="graph0" class="graph" transform="scale(1 1) rotate(0) translate(4 251.47)">
<title>dependency&#45;cruiser output</title>
<polygon fill="white" stroke="none" points="-4,4 -4,-251.47 801,-251.47 801,4 -4,4"/>
<g id="clust1" class="cluster">
<title>cluster_src</title>
<path fill="#ffffff" stroke="black" stroke-width="2" d="M20,-63.47C20,-63.47 777,-63.47 777,-63.47 783,-63.47 789,-69.47 789,-75.47 789,-75.47 789,-227.47 789,-227.47 789,-233.47 783,-239.47 777,-239.47 777,-239.47 20,-239.47 20,-239.47 14,-239.47 8,-233.47 8,-227.47 8,-227.47 8,-75.47 8,-75.47 8,-69.47 14,-63.47 20,-63.47"/>
<text text-anchor="middle" x="398.5" y="-226.92" font-family="Helvetica,sans-Serif" font-weight="bold" font-size="9.00">src</text>
</g>
<g id="clust2" class="cluster">
<title>cluster_src/components</title>
<path fill="#ffffff" stroke="black" stroke-width="2" d="M349.5,-71.47C349.5,-71.47 682.5,-71.47 682.5,-71.47 688.5,-71.47 694.5,-77.47 694.5,-83.47 694.5,-83.47 694.5,-201.47 694.5,-201.47 694.5,-207.47 688.5,-213.47 682.5,-213.47 682.5,-213.47 349.5,-213.47 349.5,-213.47 343.5,-213.47 337.5,-207.47 337.5,-201.47 337.5,-201.47 337.5,-83.47 337.5,-83.47 337.5,-77.47 343.5,-71.47 349.5,-71.47"/>
<text text-anchor="middle" x="516" y="-200.92" font-family="Helvetica,sans-Serif" font-weight="bold" font-size="9.00">components</text>
</g>
<g id="clust3" class="cluster">
<title>cluster_src/models</title>
<path fill="#ffffff" stroke="black" stroke-width="2" d="M714.5,-89.47C714.5,-89.47 769,-89.47 769,-89.47 775,-89.47 781,-95.47 781,-101.47 781,-101.47 781,-159.47 781,-159.47 781,-165.47 775,-171.47 769,-171.47 769,-171.47 714.5,-171.47 714.5,-171.47 708.5,-171.47 702.5,-165.47 702.5,-159.47 702.5,-159.47 702.5,-101.47 702.5,-101.47 702.5,-95.47 708.5,-89.47 714.5,-89.47"/>
<text text-anchor="middle" x="741.75" y="-158.92" font-family="Helvetica,sans-Serif" font-weight="bold" font-size="9.00">models</text>
</g>
<g id="clust4" class="cluster">
<title>cluster_src/pages</title>
<path fill="#ffffff" stroke="black" stroke-width="2" d="M245.75,-85.47C245.75,-85.47 317.5,-85.47 317.5,-85.47 323.5,-85.47 329.5,-91.47 329.5,-97.47 329.5,-97.47 329.5,-155.47 329.5,-155.47 329.5,-161.47 323.5,-167.47 317.5,-167.47 317.5,-167.47 245.75,-167.47 245.75,-167.47 239.75,-167.47 233.75,-161.47 233.75,-155.47 233.75,-155.47 233.75,-97.47 233.75,-97.47 233.75,-91.47 239.75,-85.47 245.75,-85.47"/>
<text text-anchor="middle" x="281.62" y="-154.92" font-family="Helvetica,sans-Serif" font-weight="bold" font-size="9.00">pages</text>
</g>
<g id="clust5" class="cluster">
<title>cluster_src/router</title>
<path fill="#ffffff" stroke="black" stroke-width="2" d="M100.75,-99.47C100.75,-99.47 213.75,-99.47 213.75,-99.47 219.75,-99.47 225.75,-105.47 225.75,-111.47 225.75,-111.47 225.75,-139.47 225.75,-139.47 225.75,-145.47 219.75,-151.47 213.75,-151.47 213.75,-151.47 100.75,-151.47 100.75,-151.47 94.75,-151.47 88.75,-145.47 88.75,-139.47 88.75,-139.47 88.75,-111.47 88.75,-111.47 88.75,-105.47 94.75,-99.47 100.75,-99.47"/>
<text text-anchor="middle" x="157.25" y="-138.92" font-family="Helvetica,sans-Serif" font-weight="bold" font-size="9.00">router</text>
</g>
<!-- components.d.ts -->
<g id="node1" class="node">
<title>components.d.ts</title>
<g id="a_node1"><a xlink:href="components.d.ts" xlink:title="components.d.ts">
<path fill="#ddfeff" stroke="black" d="M317.08,-55.35C317.08,-55.35 246.17,-55.35 246.17,-55.35 243.21,-55.35 240.25,-52.39 240.25,-49.43 240.25,-49.43 240.25,-43.51 240.25,-43.51 240.25,-40.56 243.21,-37.6 246.17,-37.6 246.17,-37.6 317.08,-37.6 317.08,-37.6 320.04,-37.6 323,-40.56 323,-43.51 323,-43.51 323,-49.43 323,-49.43 323,-52.39 320.04,-55.35 317.08,-55.35"/>
<text text-anchor="middle" x="281.62" y="-42.8" font-family="Helvetica,sans-Serif" font-size="9.00">components.d.ts</text>
</a>
</g>
</g>
<!-- src/components/CompanyTable.vue -->
<g id="node2" class="node">
<title>src/components/CompanyTable.vue</title>
<g id="a_node2"><a xlink:href="src/components/CompanyTable.vue" xlink:title="CompanyTable.vue">
<path fill="#41f083" stroke="black" d="M680.58,-97.35C680.58,-97.35 596.92,-97.35 596.92,-97.35 593.96,-97.35 591,-94.39 591,-91.43 591,-91.43 591,-85.51 591,-85.51 591,-82.56 593.96,-79.6 596.92,-79.6 596.92,-79.6 680.58,-79.6 680.58,-79.6 683.54,-79.6 686.5,-82.56 686.5,-85.51 686.5,-85.51 686.5,-91.43 686.5,-91.43 686.5,-94.39 683.54,-97.35 680.58,-97.35"/>
<text text-anchor="start" x="599" y="-84.8" font-family="Helvetica,sans-Serif" font-size="9.00">CompanyTable.vue</text>
</a>
</g>
</g>
<!-- components.d.ts&#45;&gt;src/components/CompanyTable.vue -->
<g id="edge1" class="edge">
<title>components.d.ts&#45;&gt;src/components/CompanyTable.vue</title>
<path fill="none" stroke="#000000" stroke-opacity="0.200000" d="M300.88,-37.11C311.31,-32.29 324.8,-26.92 337.5,-24.47 442.45,-4.22 479.96,18.12 578,-24.47 600.69,-34.33 618.68,-57.52 628.77,-73.11"/>
<polygon fill="none" stroke="#000000" stroke-opacity="0.200000" points="626.85,-74 631.81,-77.98 630.42,-71.77 626.85,-74"/>
</g>
<!-- src/components/CompanyTableRow.vue -->
<g id="node3" class="node">
<title>src/components/CompanyTableRow.vue</title>
<g id="a_node3"><a xlink:href="src/components/CompanyTableRow.vue" xlink:title="CompanyTableRow.vue">
<path fill="#41f083" stroke="black" d="M462.83,-127.35C462.83,-127.35 361.17,-127.35 361.17,-127.35 358.21,-127.35 355.25,-124.39 355.25,-121.43 355.25,-121.43 355.25,-115.51 355.25,-115.51 355.25,-112.56 358.21,-109.6 361.17,-109.6 361.17,-109.6 462.83,-109.6 462.83,-109.6 465.79,-109.6 468.75,-112.56 468.75,-115.51 468.75,-115.51 468.75,-121.43 468.75,-121.43 468.75,-124.39 465.79,-127.35 462.83,-127.35"/>
<text text-anchor="start" x="363.25" y="-114.8" font-family="Helvetica,sans-Serif" font-size="9.00">CompanyTableRow.vue</text>
</a>
</g>
</g>
<!-- components.d.ts&#45;&gt;src/components/CompanyTableRow.vue -->
<g id="edge2" class="edge">
<title>components.d.ts&#45;&gt;src/components/CompanyTableRow.vue</title>
<path fill="none" stroke="#000000" stroke-opacity="0.200000" d="M298.82,-55.69C308.83,-62.1 321.29,-71.44 329.5,-82.47 335.46,-90.48 329.89,-97.01 337.5,-103.47 340.74,-106.23 344.36,-108.52 348.19,-110.43"/>
<polygon fill="none" stroke="#000000" stroke-opacity="0.200000" points="347.1,-112.25 353.44,-112.69 348.76,-108.39 347.1,-112.25"/>
</g>
<!-- src/components/CompositionComponent.vue -->
<g id="node4" class="node">
<title>src/components/CompositionComponent.vue</title>
<g id="a_node4"><a xlink:href="src/components/CompositionComponent.vue" xlink:title="CompositionComponent.vue">
<path fill="#41f083" stroke="black" d="M472.58,-97.35C472.58,-97.35 351.42,-97.35 351.42,-97.35 348.46,-97.35 345.5,-94.39 345.5,-91.43 345.5,-91.43 345.5,-85.51 345.5,-85.51 345.5,-82.56 348.46,-79.6 351.42,-79.6 351.42,-79.6 472.58,-79.6 472.58,-79.6 475.54,-79.6 478.5,-82.56 478.5,-85.51 478.5,-85.51 478.5,-91.43 478.5,-91.43 478.5,-94.39 475.54,-97.35 472.58,-97.35"/>
<text text-anchor="start" x="353.5" y="-84.8" font-family="Helvetica,sans-Serif" font-size="9.00">CompositionComponent.vue</text>
</a>
</g>
</g>
<!-- components.d.ts&#45;&gt;src/components/CompositionComponent.vue -->
<g id="edge3" class="edge">
<title>components.d.ts&#45;&gt;src/components/CompositionComponent.vue</title>
<path fill="none" stroke="#000000" stroke-opacity="0.200000" d="M301.61,-55.74C312.03,-60.58 325.29,-66.34 337.5,-70.47 344.84,-72.96 352.69,-75.25 360.44,-77.31"/>
<polygon fill="none" stroke="#000000" stroke-opacity="0.200000" points="359.7,-79.29 366.04,-78.76 360.75,-75.22 359.7,-79.29"/>
</g>
<!-- src/components/HelloWorld.vue -->
<g id="node5" class="node">
<title>src/components/HelloWorld.vue</title>
<g id="a_node5"><a xlink:href="src/components/HelloWorld.vue" xlink:title="HelloWorld.vue">
<path fill="#41f083" stroke="black" d="M445.58,-187.35C445.58,-187.35 378.42,-187.35 378.42,-187.35 375.46,-187.35 372.5,-184.39 372.5,-181.43 372.5,-181.43 372.5,-175.51 372.5,-175.51 372.5,-172.56 375.46,-169.6 378.42,-169.6 378.42,-169.6 445.58,-169.6 445.58,-169.6 448.54,-169.6 451.5,-172.56 451.5,-175.51 451.5,-175.51 451.5,-181.43 451.5,-181.43 451.5,-184.39 448.54,-187.35 445.58,-187.35"/>
<text text-anchor="start" x="380.5" y="-174.8" font-family="Helvetica,sans-Serif" font-size="9.00">HelloWorld.vue</text>
</a>
</g>
</g>
<!-- components.d.ts&#45;&gt;src/components/HelloWorld.vue -->
<g id="edge4" class="edge">
<title>components.d.ts&#45;&gt;src/components/HelloWorld.vue</title>
<path fill="none" stroke="#000000" stroke-opacity="0.200000" d="M300.8,-55.58C311.03,-61.71 323.02,-70.81 329.5,-82.47 338.29,-98.28 325.38,-150.04 337.5,-163.47 344.59,-171.33 354.58,-175.71 364.92,-178.03"/>
<polygon fill="none" stroke="#000000" stroke-opacity="0.200000" points="364.33,-180.06 370.61,-179.06 365.08,-175.93 364.33,-180.06"/>
</g>
<!-- src/components/TableSection.vue -->
<g id="node6" class="node">
<title>src/components/TableSection.vue</title>
<g id="a_node6"><a xlink:href="src/components/TableSection.vue" xlink:title="TableSection.vue">
<path fill="#41f083" stroke="black" d="M572.08,-97.35C572.08,-97.35 497.42,-97.35 497.42,-97.35 494.46,-97.35 491.5,-94.39 491.5,-91.43 491.5,-91.43 491.5,-85.51 491.5,-85.51 491.5,-82.56 494.46,-79.6 497.42,-79.6 497.42,-79.6 572.08,-79.6 572.08,-79.6 575.04,-79.6 578,-82.56 578,-85.51 578,-85.51 578,-91.43 578,-91.43 578,-94.39 575.04,-97.35 572.08,-97.35"/>
<text text-anchor="start" x="499.5" y="-84.8" font-family="Helvetica,sans-Serif" font-size="9.00">TableSection.vue</text>
</a>
</g>
</g>
<!-- components.d.ts&#45;&gt;src/components/TableSection.vue -->
<g id="edge5" class="edge">
<title>components.d.ts&#45;&gt;src/components/TableSection.vue</title>
<path fill="none" stroke="#000000" stroke-opacity="0.200000" d="M323.4,-50.55C363.2,-54.9 425.35,-62.64 478.5,-73.47 483.91,-74.58 489.57,-75.91 495.13,-77.31"/>
<polygon fill="none" stroke="#000000" stroke-opacity="0.200000" points="494.27,-79.26 500.61,-78.74 495.33,-75.2 494.27,-79.26"/>
</g>
<!-- src/components/UserTable.vue -->
<g id="node7" class="node">
<title>src/components/UserTable.vue</title>
<g id="a_node7"><a xlink:href="src/components/UserTable.vue" xlink:title="UserTable.vue">
<path fill="#41f083" stroke="black" d="M670.46,-127.35C670.46,-127.35 607.04,-127.35 607.04,-127.35 604.08,-127.35 601.12,-124.39 601.12,-121.43 601.12,-121.43 601.12,-115.51 601.12,-115.51 601.12,-112.56 604.08,-109.6 607.04,-109.6 607.04,-109.6 670.46,-109.6 670.46,-109.6 673.42,-109.6 676.38,-112.56 676.38,-115.51 676.38,-115.51 676.38,-121.43 676.38,-121.43 676.38,-124.39 673.42,-127.35 670.46,-127.35"/>
<text text-anchor="start" x="609.12" y="-114.8" font-family="Helvetica,sans-Serif" font-size="9.00">UserTable.vue</text>
</a>
</g>
</g>
<!-- components.d.ts&#45;&gt;src/components/UserTable.vue -->
<g id="edge6" class="edge">
<title>components.d.ts&#45;&gt;src/components/UserTable.vue</title>
<path fill="none" stroke="#000000" stroke-opacity="0.200000" d="M322.44,-37.13C384.78,-25.03 505.78,-12.14 578,-73.47 589.08,-82.88 580.23,-93.72 591,-103.47 592.09,-104.46 593.24,-105.38 594.45,-106.24"/>
<polygon fill="none" stroke="#000000" stroke-opacity="0.200000" points="593.32,-108.02 599.55,-109.29 595.48,-104.41 593.32,-108.02"/>
</g>
<!-- src/components/UserTableRow.vue -->
<g id="node8" class="node">
<title>src/components/UserTableRow.vue</title>
<g id="a_node8"><a xlink:href="src/components/UserTableRow.vue" xlink:title="UserTableRow.vue">
<path fill="#41f083" stroke="black" d="M452.71,-157.35C452.71,-157.35 371.29,-157.35 371.29,-157.35 368.33,-157.35 365.38,-154.39 365.38,-151.43 365.38,-151.43 365.38,-145.51 365.38,-145.51 365.38,-142.56 368.33,-139.6 371.29,-139.6 371.29,-139.6 452.71,-139.6 452.71,-139.6 455.67,-139.6 458.62,-142.56 458.62,-145.51 458.62,-145.51 458.62,-151.43 458.62,-151.43 458.62,-154.39 455.67,-157.35 452.71,-157.35"/>
<text text-anchor="start" x="373.38" y="-144.8" font-family="Helvetica,sans-Serif" font-size="9.00">UserTableRow.vue</text>
</a>
</g>
</g>
<!-- components.d.ts&#45;&gt;src/components/UserTableRow.vue -->
<g id="edge7" class="edge">
<title>components.d.ts&#45;&gt;src/components/UserTableRow.vue</title>
<path fill="none" stroke="#000000" stroke-opacity="0.200000" d="M300.56,-55.72C310.71,-61.9 322.69,-71 329.5,-82.47 341.21,-102.2 321.65,-116.88 337.5,-133.47 343.08,-139.31 350.27,-143.2 357.96,-145.75"/>
<polygon fill="none" stroke="#000000" stroke-opacity="0.200000" points="357.33,-147.75 363.67,-147.32 358.45,-143.7 357.33,-147.75"/>
</g>
<!-- src/models/company.ts -->
<g id="node10" class="node">
<title>src/models/company.ts</title>
<g id="a_node10"><a xlink:href="src/models/company.ts" xlink:title="company.ts">
<path fill="#ddfeff" stroke="black" d="M767.08,-115.35C767.08,-115.35 716.42,-115.35 716.42,-115.35 713.46,-115.35 710.5,-112.39 710.5,-109.43 710.5,-109.43 710.5,-103.51 710.5,-103.51 710.5,-100.56 713.46,-97.6 716.42,-97.6 716.42,-97.6 767.08,-97.6 767.08,-97.6 770.04,-97.6 773,-100.56 773,-103.51 773,-103.51 773,-109.43 773,-109.43 773,-112.39 770.04,-115.35 767.08,-115.35"/>
<text text-anchor="start" x="718.5" y="-102.8" font-family="Helvetica,sans-Serif" font-size="9.00">company.ts</text>
</a>
</g>
</g>
<!-- src/components/CompanyTable.vue&#45;&gt;src/models/company.ts -->
<g id="edge8" class="edge">
<title>src/components/CompanyTable.vue&#45;&gt;src/models/company.ts</title>
<path fill="none" stroke="#000000" stroke-width="2" stroke-opacity="0.200000" d="M687,-96.89C691.82,-97.75 696.67,-98.62 701.39,-99.46"/>
<polygon fill="#000000" fill-opacity="0.200000" stroke="#000000" stroke-width="2" stroke-opacity="0.200000" points="701,-101.52 707.28,-100.51 701.74,-97.39 701,-101.52"/>
</g>
<!-- src/components/CompanyTableRow.vue&#45;&gt;src/models/company.ts -->
<g id="edge9" class="edge">
<title>src/components/CompanyTableRow.vue&#45;&gt;src/models/company.ts</title>
<path fill="none" stroke="#000000" stroke-width="2" stroke-opacity="0.200000" d="M466.56,-127.81C537.04,-139 656.42,-153.85 694.5,-133.47 700.15,-130.45 697.51,-125.5 702.5,-121.47 702.92,-121.14 703.34,-120.81 703.77,-120.49"/>
<polygon fill="#000000" fill-opacity="0.200000" stroke="#000000" stroke-width="2" stroke-opacity="0.200000" points="704.73,-122.36 708.73,-117.42 702.53,-118.79 704.73,-122.36"/>
</g>
<!-- src/components/CompositionComponent.vue&#45;&gt;src/components/TableSection.vue -->
<g id="edge10" class="edge">
<title>src/components/CompositionComponent.vue&#45;&gt;src/components/TableSection.vue</title>
<path fill="none" stroke="#000000" stroke-width="2" stroke-opacity="0.200000" d="M478.68,-88.47C479.86,-88.47 481.04,-88.47 482.21,-88.47"/>
<polygon fill="#000000" fill-opacity="0.200000" stroke="#000000" stroke-width="2" stroke-opacity="0.200000" points="482.07,-90.57 488.07,-88.47 482.07,-86.37 482.07,-90.57"/>
</g>
<!-- src/components/TableSection.vue&#45;&gt;src/components/CompanyTable.vue -->
<g id="edge11" class="edge">
<title>src/components/TableSection.vue&#45;&gt;src/components/CompanyTable.vue</title>
<path fill="none" stroke="#000000" stroke-width="2" stroke-opacity="0.200000" d="M578.42,-88.47C579.55,-88.47 580.69,-88.47 581.84,-88.47"/>
<polygon fill="#000000" fill-opacity="0.200000" stroke="#000000" stroke-width="2" stroke-opacity="0.200000" points="581.62,-90.57 587.62,-88.47 581.62,-86.37 581.62,-90.57"/>
</g>
<!-- src/components/TableSection.vue&#45;&gt;src/components/UserTable.vue -->
<g id="edge12" class="edge">
<title>src/components/TableSection.vue&#45;&gt;src/components/UserTable.vue</title>
<path fill="none" stroke="#000000" stroke-width="2" stroke-opacity="0.200000" d="M567.46,-97.8C576.96,-100.59 587.51,-103.7 597.48,-106.63"/>
<polygon fill="#000000" fill-opacity="0.200000" stroke="#000000" stroke-width="2" stroke-opacity="0.200000" points="596.8,-108.62 603.15,-108.3 597.99,-104.59 596.8,-108.62"/>
</g>
<!-- src/models/user.ts -->
<g id="node11" class="node">
<title>src/models/user.ts</title>
<g id="a_node11"><a xlink:href="src/models/user.ts" xlink:title="user.ts">
<path fill="#ddfeff" stroke="black" d="M762.83,-145.35C762.83,-145.35 720.67,-145.35 720.67,-145.35 717.71,-145.35 714.75,-142.39 714.75,-139.43 714.75,-139.43 714.75,-133.51 714.75,-133.51 714.75,-130.56 717.71,-127.6 720.67,-127.6 720.67,-127.6 762.83,-127.6 762.83,-127.6 765.79,-127.6 768.75,-130.56 768.75,-133.51 768.75,-133.51 768.75,-139.43 768.75,-139.43 768.75,-142.39 765.79,-145.35 762.83,-145.35"/>
<text text-anchor="start" x="728.25" y="-132.8" font-family="Helvetica,sans-Serif" font-size="9.00">user.ts</text>
</a>
</g>
</g>
<!-- src/components/UserTable.vue&#45;&gt;src/models/user.ts -->
<g id="edge13" class="edge">
<title>src/components/UserTable.vue&#45;&gt;src/models/user.ts</title>
<path fill="none" stroke="#000000" stroke-width="2" stroke-opacity="0.200000" d="M676.79,-125.07C686.26,-126.76 696.41,-128.57 705.77,-130.24"/>
<polygon fill="#000000" fill-opacity="0.200000" stroke="#000000" stroke-width="2" stroke-opacity="0.200000" points="705.21,-132.27 711.48,-131.26 705.94,-128.14 705.21,-132.27"/>
</g>
<!-- src/components/UserTableRow.vue&#45;&gt;src/models/user.ts -->
<g id="edge14" class="edge">
<title>src/components/UserTableRow.vue&#45;&gt;src/models/user.ts</title>
<path fill="none" stroke="#000000" stroke-width="2" stroke-opacity="0.200000" d="M458.91,-149.01C514.69,-149.31 611.63,-148.71 694.5,-142.47 698.13,-142.2 701.92,-141.84 705.69,-141.42"/>
<polygon fill="#000000" fill-opacity="0.200000" stroke="#000000" stroke-width="2" stroke-opacity="0.200000" points="705.67,-143.54 711.38,-140.75 705.17,-139.37 705.67,-143.54"/>
</g>
<!-- src/App.vue -->
<g id="node9" class="node">
<title>src/App.vue</title>
<g id="a_node9"><a xlink:href="src/App.vue" xlink:title="App.vue">
<path fill="#41f083" stroke="black" d="M144.83,-91.35C144.83,-91.35 102.67,-91.35 102.67,-91.35 99.71,-91.35 96.75,-88.39 96.75,-85.43 96.75,-85.43 96.75,-79.51 96.75,-79.51 96.75,-76.56 99.71,-73.6 102.67,-73.6 102.67,-73.6 144.83,-73.6 144.83,-73.6 147.79,-73.6 150.75,-76.56 150.75,-79.51 150.75,-79.51 150.75,-85.43 150.75,-85.43 150.75,-88.39 147.79,-91.35 144.83,-91.35"/>
<text text-anchor="start" x="106.88" y="-78.8" font-family="Helvetica,sans-Serif" font-size="9.00">App.vue</text>
</a>
</g>
</g>
<!-- src/main.ts -->
<g id="node12" class="node">
<title>src/main.ts</title>
<g id="a_node12"><a xlink:href="src/main.ts" xlink:title="main.ts">
<path fill="#ddfeff" stroke="black" d="M69.46,-125.35C69.46,-125.35 27.29,-125.35 27.29,-125.35 24.33,-125.35 21.38,-122.39 21.38,-119.43 21.38,-119.43 21.38,-113.51 21.38,-113.51 21.38,-110.56 24.33,-107.6 27.29,-107.6 27.29,-107.6 69.46,-107.6 69.46,-107.6 72.42,-107.6 75.38,-110.56 75.38,-113.51 75.38,-113.51 75.38,-119.43 75.38,-119.43 75.38,-122.39 72.42,-125.35 69.46,-125.35"/>
<text text-anchor="start" x="33.75" y="-112.8" font-family="Helvetica,sans-Serif" font-size="9.00">main.ts</text>
</a>
</g>
</g>
<!-- src/main.ts&#45;&gt;src/App.vue -->
<g id="edge15" class="edge">
<title>src/main.ts&#45;&gt;src/App.vue</title>
<path fill="none" stroke="#000000" stroke-width="2" stroke-opacity="0.200000" d="M66.87,-107.21C73.65,-103.72 81.5,-99.8 88.75,-96.47 89.62,-96.07 90.51,-95.67 91.4,-95.27"/>
<polygon fill="#000000" fill-opacity="0.200000" stroke="#000000" stroke-width="2" stroke-opacity="0.200000" points="92.15,-97.24 96.82,-92.92 90.48,-93.38 92.15,-97.24"/>
</g>
<!-- src/router/index.ts -->
<g id="node13" class="node">
<title>src/router/index.ts</title>
<g id="a_node13"><a xlink:href="src/router/index.ts" xlink:title="index.ts">
<path fill="#ddfeff" stroke="black" d="M144.83,-125.35C144.83,-125.35 102.67,-125.35 102.67,-125.35 99.71,-125.35 96.75,-122.39 96.75,-119.43 96.75,-119.43 96.75,-113.51 96.75,-113.51 96.75,-110.56 99.71,-107.6 102.67,-107.6 102.67,-107.6 144.83,-107.6 144.83,-107.6 147.79,-107.6 150.75,-110.56 150.75,-113.51 150.75,-113.51 150.75,-119.43 150.75,-119.43 150.75,-122.39 147.79,-125.35 144.83,-125.35"/>
<text text-anchor="start" x="108" y="-112.8" font-family="Helvetica,sans-Serif" font-size="9.00">index.ts</text>
</a>
</g>
</g>
<!-- src/main.ts&#45;&gt;src/router/index.ts -->
<g id="edge16" class="edge">
<title>src/main.ts&#45;&gt;src/router/index.ts</title>
<path fill="none" stroke="#000000" stroke-width="2" stroke-opacity="0.200000" d="M75.87,-116.47C79.65,-116.47 83.6,-116.47 87.52,-116.47"/>
<polygon fill="#000000" fill-opacity="0.200000" stroke="#000000" stroke-width="2" stroke-opacity="0.200000" points="87.52,-118.57 93.52,-116.47 87.52,-114.37 87.52,-118.57"/>
</g>
<!-- src/style.css -->
<g id="node14" class="node">
<title>src/style.css</title>
<g id="a_node14"><a xlink:href="src/style.css" xlink:title="style.css">
<path fill="#ffffcc" stroke="black" d="M144.83,-177.35C144.83,-177.35 102.67,-177.35 102.67,-177.35 99.71,-177.35 96.75,-174.39 96.75,-171.43 96.75,-171.43 96.75,-165.51 96.75,-165.51 96.75,-162.56 99.71,-159.6 102.67,-159.6 102.67,-159.6 144.83,-159.6 144.83,-159.6 147.79,-159.6 150.75,-162.56 150.75,-165.51 150.75,-165.51 150.75,-171.43 150.75,-171.43 150.75,-174.39 147.79,-177.35 144.83,-177.35"/>
<text text-anchor="start" x="106.5" y="-164.8" font-family="Helvetica,sans-Serif" font-size="9.00">style.css</text>
</a>
</g>
</g>
<!-- src/main.ts&#45;&gt;src/style.css -->
<g id="edge17" class="edge">
<title>src/main.ts&#45;&gt;src/style.css</title>
<path fill="none" stroke="#000000" stroke-width="2" stroke-opacity="0.200000" d="M57.03,-125.63C64.44,-134.03 76.35,-146.36 88.75,-154.47 89,-154.64 89.25,-154.8 89.51,-154.96"/>
<polygon fill="#000000" fill-opacity="0.200000" stroke="#000000" stroke-width="2" stroke-opacity="0.200000" points="88.4,-156.75 94.67,-157.8 90.43,-153.07 88.4,-156.75"/>
</g>
<!-- src/router/route.ts -->
<g id="node17" class="node">
<title>src/router/route.ts</title>
<g id="a_node17"><a xlink:href="src/router/route.ts" xlink:title="route.ts">
<path fill="#ddfeff" stroke="black" d="M211.83,-125.35C211.83,-125.35 169.67,-125.35 169.67,-125.35 166.71,-125.35 163.75,-122.39 163.75,-119.43 163.75,-119.43 163.75,-113.51 163.75,-113.51 163.75,-110.56 166.71,-107.6 169.67,-107.6 169.67,-107.6 211.83,-107.6 211.83,-107.6 214.79,-107.6 217.75,-110.56 217.75,-113.51 217.75,-113.51 217.75,-119.43 217.75,-119.43 217.75,-122.39 214.79,-125.35 211.83,-125.35"/>
<text text-anchor="start" x="175.75" y="-112.8" font-family="Helvetica,sans-Serif" font-size="9.00">route.ts</text>
</a>
</g>
</g>
<!-- src/router/index.ts&#45;&gt;src/router/route.ts -->
<g id="edge20" class="edge">
<title>src/router/index.ts&#45;&gt;src/router/route.ts</title>
<path fill="none" stroke="#000000" stroke-width="2" stroke-opacity="0.200000" d="M151.19,-116.47C152.33,-116.47 153.49,-116.47 154.65,-116.47"/>
<polygon fill="#000000" fill-opacity="0.200000" stroke="#000000" stroke-width="2" stroke-opacity="0.200000" points="154.52,-118.57 160.52,-116.47 154.52,-114.37 154.52,-118.57"/>
</g>
<!-- src/pages/AboutPage.vue -->
<g id="node15" class="node">
<title>src/pages/AboutPage.vue</title>
<g id="a_node15"><a xlink:href="src/pages/AboutPage.vue" xlink:title="AboutPage.vue">
<path fill="#41f083" stroke="black" d="M315.21,-141.35C315.21,-141.35 248.04,-141.35 248.04,-141.35 245.08,-141.35 242.12,-138.39 242.12,-135.43 242.12,-135.43 242.12,-129.51 242.12,-129.51 242.12,-126.56 245.08,-123.6 248.04,-123.6 248.04,-123.6 315.21,-123.6 315.21,-123.6 318.17,-123.6 321.12,-126.56 321.12,-129.51 321.12,-129.51 321.12,-135.43 321.12,-135.43 321.12,-138.39 318.17,-141.35 315.21,-141.35"/>
<text text-anchor="start" x="250.12" y="-128.8" font-family="Helvetica,sans-Serif" font-size="9.00">AboutPage.vue</text>
</a>
</g>
</g>
<!-- src/pages/HomePage.vue -->
<g id="node16" class="node">
<title>src/pages/HomePage.vue</title>
<g id="a_node16"><a xlink:href="src/pages/HomePage.vue" xlink:title="HomePage.vue">
<path fill="#41f083" stroke="black" d="M315.58,-111.35C315.58,-111.35 247.67,-111.35 247.67,-111.35 244.71,-111.35 241.75,-108.39 241.75,-105.43 241.75,-105.43 241.75,-99.51 241.75,-99.51 241.75,-96.56 244.71,-93.6 247.67,-93.6 247.67,-93.6 315.58,-93.6 315.58,-93.6 318.54,-93.6 321.5,-96.56 321.5,-99.51 321.5,-99.51 321.5,-105.43 321.5,-105.43 321.5,-108.39 318.54,-111.35 315.58,-111.35"/>
<text text-anchor="start" x="249.75" y="-98.8" font-family="Helvetica,sans-Serif" font-size="9.00">HomePage.vue</text>
</a>
</g>
</g>
<!-- src/pages/HomePage.vue&#45;&gt;src/components/CompositionComponent.vue -->
<g id="edge18" class="edge">
<title>src/pages/HomePage.vue&#45;&gt;src/components/CompositionComponent.vue</title>
<path fill="none" stroke="#000000" stroke-width="2" stroke-opacity="0.200000" d="M321.84,-98.2C326.45,-97.69 331.26,-97.17 336.16,-96.64"/>
<polygon fill="#000000" fill-opacity="0.200000" stroke="#000000" stroke-width="2" stroke-opacity="0.200000" points="336.29,-98.73 342.03,-96 335.84,-94.56 336.29,-98.73"/>
</g>
<!-- src/pages/HomePage.vue&#45;&gt;src/components/HelloWorld.vue -->
<g id="edge19" class="edge">
<title>src/pages/HomePage.vue&#45;&gt;src/components/HelloWorld.vue</title>
<path fill="none" stroke="#000000" stroke-width="2" stroke-opacity="0.200000" d="M321.63,-110.99C324.57,-112.76 327.25,-114.9 329.5,-117.47 343.13,-133.12 323.04,-148.59 337.5,-163.47 344.45,-170.63 353.82,-174.84 363.53,-177.24"/>
<polygon fill="#000000" fill-opacity="0.200000" stroke="#000000" stroke-width="2" stroke-opacity="0.200000" points="362.85,-179.24 369.14,-178.33 363.65,-175.12 362.85,-179.24"/>
</g>
<!-- src/router/route.ts&#45;&gt;src/pages/AboutPage.vue -->
<g id="edge21" class="edge">
<title>src/router/route.ts&#45;&gt;src/pages/AboutPage.vue</title>
<path fill="none" stroke="#000000" stroke-width="2" stroke-opacity="0.200000" d="M217.93,-121.19C222.72,-122.05 227.86,-122.97 233.04,-123.91"/>
<polygon fill="#000000" fill-opacity="0.200000" stroke="#000000" stroke-width="2" stroke-opacity="0.200000" points="232.52,-125.95 238.8,-124.94 233.27,-121.81 232.52,-125.95"/>
</g>
<!-- src/router/route.ts&#45;&gt;src/pages/HomePage.vue -->
<g id="edge22" class="edge">
<title>src/router/route.ts&#45;&gt;src/pages/HomePage.vue</title>
<path fill="none" stroke="#000000" stroke-width="2" stroke-opacity="0.200000" d="M217.93,-112.35C222.66,-111.6 227.71,-110.81 232.83,-110"/>
<polygon fill="#000000" fill-opacity="0.200000" stroke="#000000" stroke-width="2" stroke-opacity="0.200000" points="232.86,-112.12 238.46,-109.12 232.21,-107.97 232.86,-112.12"/>
</g>
<!-- src/vite&#45;env.d.ts -->
<g id="node18" class="node">
<title>src/vite&#45;env.d.ts</title>
<g id="a_node18"><a xlink:href="src/vite-env.d.ts" xlink:title="vite&#45;env.d.ts">
<path fill="#ccffcc" stroke="black" d="M74.83,-185.35C74.83,-185.35 21.92,-185.35 21.92,-185.35 18.96,-185.35 16,-182.39 16,-179.43 16,-179.43 16,-173.51 16,-173.51 16,-170.56 18.96,-167.6 21.92,-167.6 21.92,-167.6 74.83,-167.6 74.83,-167.6 77.79,-167.6 80.75,-170.56 80.75,-173.51 80.75,-173.51 80.75,-179.43 80.75,-179.43 80.75,-182.39 77.79,-185.35 74.83,-185.35"/>
<text text-anchor="start" x="24" y="-172.8" font-family="Helvetica,sans-Serif" font-size="9.00">vite&#45;env.d.ts</text>
</a>
</g>
</g>
</g>
</svg>
