<?xml version="1.0" encoding="UTF-8" standalone="no"?>
<!DOCTYPE svg PUBLIC "-//W3C//DTD SVG 1.1//EN"
 "http://www.w3.org/Graphics/SVG/1.1/DTD/svg11.dtd">
<!-- Generated by graphviz version 11.0.0 (20240428.1522)
 -->
<!-- Title: dependency&#45;cruiser output Pages: 1 -->
<svg width="805pt" height="200pt"
 viewBox="0.00 0.00 805.00 200.00" xmlns="http://www.w3.org/2000/svg" xmlns:xlink="http://www.w3.org/1999/xlink">
<g id="graph0" class="graph" transform="scale(1 1) rotate(0) translate(4 196)">
<title>dependency&#45;cruiser output</title>
<polygon fill="white" stroke="none" points="-4,4 -4,-196 801,-196 801,4 -4,4"/>
<g id="clust1" class="cluster">
<title>cluster_src</title>
<path fill="#ffffff" stroke="black" stroke-width="2" d="M20,-8C20,-8 777,-8 777,-8 783,-8 789,-14 789,-20 789,-20 789,-172 789,-172 789,-178 783,-184 777,-184 777,-184 20,-184 20,-184 14,-184 8,-178 8,-172 8,-172 8,-20 8,-20 8,-14 14,-8 20,-8"/>
<text text-anchor="middle" x="398.5" y="-171.45" font-family="Helvetica,sans-Serif" font-weight="bold" font-size="9.00">src</text>
</g>
<g id="clust2" class="cluster">
<title>cluster_src/components</title>
<path fill="#ffffff" stroke="black" stroke-width="2" d="M349.5,-16C349.5,-16 682.5,-16 682.5,-16 688.5,-16 694.5,-22 694.5,-28 694.5,-28 694.5,-146 694.5,-146 694.5,-152 688.5,-158 682.5,-158 682.5,-158 349.5,-158 349.5,-158 343.5,-158 337.5,-152 337.5,-146 337.5,-146 337.5,-28 337.5,-28 337.5,-22 343.5,-16 349.5,-16"/>
<text text-anchor="middle" x="516" y="-145.45" font-family="Helvetica,sans-Serif" font-weight="bold" font-size="9.00">components</text>
</g>
<g id="clust3" class="cluster">
<title>cluster_src/models</title>
<path fill="#ffffff" stroke="black" stroke-width="2" d="M714.5,-34C714.5,-34 769,-34 769,-34 775,-34 781,-40 781,-46 781,-46 781,-104 781,-104 781,-110 775,-116 769,-116 769,-116 714.5,-116 714.5,-116 708.5,-116 702.5,-110 702.5,-104 702.5,-104 702.5,-46 702.5,-46 702.5,-40 708.5,-34 714.5,-34"/>
<text text-anchor="middle" x="741.75" y="-103.45" font-family="Helvetica,sans-Serif" font-weight="bold" font-size="9.00">models</text>
</g>
<g id="clust4" class="cluster">
<title>cluster_src/pages</title>
<path fill="#ffffff" stroke="black" stroke-width="2" d="M245.75,-30C245.75,-30 317.5,-30 317.5,-30 323.5,-30 329.5,-36 329.5,-42 329.5,-42 329.5,-100 329.5,-100 329.5,-106 323.5,-112 317.5,-112 317.5,-112 245.75,-112 245.75,-112 239.75,-112 233.75,-106 233.75,-100 233.75,-100 233.75,-42 233.75,-42 233.75,-36 239.75,-30 245.75,-30"/>
<text text-anchor="middle" x="281.62" y="-99.45" font-family="Helvetica,sans-Serif" font-weight="bold" font-size="9.00">pages</text>
</g>
<g id="clust5" class="cluster">
<title>cluster_src/router</title>
<path fill="#ffffff" stroke="black" stroke-width="2" d="M100.75,-44C100.75,-44 213.75,-44 213.75,-44 219.75,-44 225.75,-50 225.75,-56 225.75,-56 225.75,-84 225.75,-84 225.75,-90 219.75,-96 213.75,-96 213.75,-96 100.75,-96 100.75,-96 94.75,-96 88.75,-90 88.75,-84 88.75,-84 88.75,-56 88.75,-56 88.75,-50 94.75,-44 100.75,-44"/>
<text text-anchor="middle" x="157.25" y="-83.45" font-family="Helvetica,sans-Serif" font-weight="bold" font-size="9.00">router</text>
</g>
<!-- src/App.vue -->
<g id="node1" class="node">
<title>src/App.vue</title>
<g id="a_node1"><a xlink:href="src/App.vue" xlink:title="App.vue">
<path fill="#41f083" stroke="black" d="M144.83,-35.88C144.83,-35.88 102.67,-35.88 102.67,-35.88 99.71,-35.88 96.75,-32.92 96.75,-29.96 96.75,-29.96 96.75,-24.04 96.75,-24.04 96.75,-21.08 99.71,-18.12 102.67,-18.12 102.67,-18.12 144.83,-18.12 144.83,-18.12 147.79,-18.12 150.75,-21.08 150.75,-24.04 150.75,-24.04 150.75,-29.96 150.75,-29.96 150.75,-32.92 147.79,-35.88 144.83,-35.88"/>
<text text-anchor="start" x="106.88" y="-23.32" font-family="Helvetica,sans-Serif" font-size="9.00">App.vue</text>
</a>
</g>
</g>
<!-- src/components/CompanyTable.vue -->
<g id="node2" class="node">
<title>src/components/CompanyTable.vue</title>
<g id="a_node2"><a xlink:href="src/components/CompanyTable.vue" xlink:title="CompanyTable.vue">
<path fill="#41f083" stroke="black" d="M680.58,-41.88C680.58,-41.88 596.92,-41.88 596.92,-41.88 593.96,-41.88 591,-38.92 591,-35.96 591,-35.96 591,-30.04 591,-30.04 591,-27.08 593.96,-24.12 596.92,-24.12 596.92,-24.12 680.58,-24.12 680.58,-24.12 683.54,-24.12 686.5,-27.08 686.5,-30.04 686.5,-30.04 686.5,-35.96 686.5,-35.96 686.5,-38.92 683.54,-41.88 680.58,-41.88"/>
<text text-anchor="start" x="599" y="-29.32" font-family="Helvetica,sans-Serif" font-size="9.00">CompanyTable.vue</text>
</a>
</g>
</g>
<!-- src/models/company.ts -->
<g id="node3" class="node">
<title>src/models/company.ts</title>
<g id="a_node3"><a xlink:href="src/models/company.ts" xlink:title="company.ts">
<path fill="#ddfeff" stroke="black" d="M767.08,-59.88C767.08,-59.88 716.42,-59.88 716.42,-59.88 713.46,-59.88 710.5,-56.92 710.5,-53.96 710.5,-53.96 710.5,-48.04 710.5,-48.04 710.5,-45.08 713.46,-42.12 716.42,-42.12 716.42,-42.12 767.08,-42.12 767.08,-42.12 770.04,-42.12 773,-45.08 773,-48.04 773,-48.04 773,-53.96 773,-53.96 773,-56.92 770.04,-59.88 767.08,-59.88"/>
<text text-anchor="start" x="718.5" y="-47.33" font-family="Helvetica,sans-Serif" font-size="9.00">company.ts</text>
</a>
</g>
</g>
<!-- src/components/CompanyTable.vue&#45;&gt;src/models/company.ts -->
<g id="edge1" class="edge">
<title>src/components/CompanyTable.vue&#45;&gt;src/models/company.ts</title>
<path fill="none" stroke="#000000" stroke-width="2" stroke-opacity="0.200000" d="M687,-41.42C691.82,-42.28 696.67,-43.14 701.39,-43.99"/>
<polygon fill="#000000" fill-opacity="0.200000" stroke="#000000" stroke-width="2" stroke-opacity="0.200000" points="701,-46.05 707.28,-45.03 701.74,-41.91 701,-46.05"/>
</g>
<!-- src/components/CompanyTableRow.vue -->
<g id="node4" class="node">
<title>src/components/CompanyTableRow.vue</title>
<g id="a_node4"><a xlink:href="src/components/CompanyTableRow.vue" xlink:title="CompanyTableRow.vue">
<path fill="#41f083" stroke="black" d="M462.83,-71.88C462.83,-71.88 361.17,-71.88 361.17,-71.88 358.21,-71.88 355.25,-68.92 355.25,-65.96 355.25,-65.96 355.25,-60.04 355.25,-60.04 355.25,-57.08 358.21,-54.12 361.17,-54.12 361.17,-54.12 462.83,-54.12 462.83,-54.12 465.79,-54.12 468.75,-57.08 468.75,-60.04 468.75,-60.04 468.75,-65.96 468.75,-65.96 468.75,-68.92 465.79,-71.88 462.83,-71.88"/>
<text text-anchor="start" x="363.25" y="-59.33" font-family="Helvetica,sans-Serif" font-size="9.00">CompanyTableRow.vue</text>
</a>
</g>
</g>
<!-- src/components/CompanyTableRow.vue&#45;&gt;src/models/company.ts -->
<g id="edge2" class="edge">
<title>src/components/CompanyTableRow.vue&#45;&gt;src/models/company.ts</title>
<path fill="none" stroke="#000000" stroke-width="2" stroke-opacity="0.200000" d="M466.56,-72.34C537.04,-83.53 656.42,-98.38 694.5,-78 700.15,-74.98 697.51,-70.02 702.5,-66 702.92,-65.66 703.34,-65.34 703.77,-65.01"/>
<polygon fill="#000000" fill-opacity="0.200000" stroke="#000000" stroke-width="2" stroke-opacity="0.200000" points="704.73,-66.89 708.73,-61.95 702.53,-63.32 704.73,-66.89"/>
</g>
<!-- src/components/CompositionComponent.vue -->
<g id="node5" class="node">
<title>src/components/CompositionComponent.vue</title>
<g id="a_node5"><a xlink:href="src/components/CompositionComponent.vue" xlink:title="CompositionComponent.vue">
<path fill="#41f083" stroke="black" d="M472.58,-41.88C472.58,-41.88 351.42,-41.88 351.42,-41.88 348.46,-41.88 345.5,-38.92 345.5,-35.96 345.5,-35.96 345.5,-30.04 345.5,-30.04 345.5,-27.08 348.46,-24.12 351.42,-24.12 351.42,-24.12 472.58,-24.12 472.58,-24.12 475.54,-24.12 478.5,-27.08 478.5,-30.04 478.5,-30.04 478.5,-35.96 478.5,-35.96 478.5,-38.92 475.54,-41.88 472.58,-41.88"/>
<text text-anchor="start" x="353.5" y="-29.32" font-family="Helvetica,sans-Serif" font-size="9.00">CompositionComponent.vue</text>
</a>
</g>
</g>
<!-- src/components/TableSection.vue -->
<g id="node6" class="node">
<title>src/components/TableSection.vue</title>
<g id="a_node6"><a xlink:href="src/components/TableSection.vue" xlink:title="TableSection.vue">
<path fill="#41f083" stroke="black" d="M572.08,-41.88C572.08,-41.88 497.42,-41.88 497.42,-41.88 494.46,-41.88 491.5,-38.92 491.5,-35.96 491.5,-35.96 491.5,-30.04 491.5,-30.04 491.5,-27.08 494.46,-24.12 497.42,-24.12 497.42,-24.12 572.08,-24.12 572.08,-24.12 575.04,-24.12 578,-27.08 578,-30.04 578,-30.04 578,-35.96 578,-35.96 578,-38.92 575.04,-41.88 572.08,-41.88"/>
<text text-anchor="start" x="499.5" y="-29.32" font-family="Helvetica,sans-Serif" font-size="9.00">TableSection.vue</text>
</a>
</g>
</g>
<!-- src/components/CompositionComponent.vue&#45;&gt;src/components/TableSection.vue -->
<g id="edge3" class="edge">
<title>src/components/CompositionComponent.vue&#45;&gt;src/components/TableSection.vue</title>
<path fill="none" stroke="#000000" stroke-width="2" stroke-opacity="0.200000" d="M478.68,-33C479.86,-33 481.04,-33 482.21,-33"/>
<polygon fill="#000000" fill-opacity="0.200000" stroke="#000000" stroke-width="2" stroke-opacity="0.200000" points="482.07,-35.1 488.07,-33 482.07,-30.9 482.07,-35.1"/>
</g>
<!-- src/components/TableSection.vue&#45;&gt;src/components/CompanyTable.vue -->
<g id="edge4" class="edge">
<title>src/components/TableSection.vue&#45;&gt;src/components/CompanyTable.vue</title>
<path fill="none" stroke="#000000" stroke-width="2" stroke-opacity="0.200000" d="M578.42,-33C579.55,-33 580.69,-33 581.84,-33"/>
<polygon fill="#000000" fill-opacity="0.200000" stroke="#000000" stroke-width="2" stroke-opacity="0.200000" points="581.62,-35.1 587.62,-33 581.62,-30.9 581.62,-35.1"/>
</g>
<!-- src/components/UserTable.vue -->
<g id="node8" class="node">
<title>src/components/UserTable.vue</title>
<g id="a_node8"><a xlink:href="src/components/UserTable.vue" xlink:title="UserTable.vue">
<path fill="#41f083" stroke="black" d="M670.46,-71.88C670.46,-71.88 607.04,-71.88 607.04,-71.88 604.08,-71.88 601.12,-68.92 601.12,-65.96 601.12,-65.96 601.12,-60.04 601.12,-60.04 601.12,-57.08 604.08,-54.12 607.04,-54.12 607.04,-54.12 670.46,-54.12 670.46,-54.12 673.42,-54.12 676.38,-57.08 676.38,-60.04 676.38,-60.04 676.38,-65.96 676.38,-65.96 676.38,-68.92 673.42,-71.88 670.46,-71.88"/>
<text text-anchor="start" x="609.12" y="-59.33" font-family="Helvetica,sans-Serif" font-size="9.00">UserTable.vue</text>
</a>
</g>
</g>
<!-- src/components/TableSection.vue&#45;&gt;src/components/UserTable.vue -->
<g id="edge5" class="edge">
<title>src/components/TableSection.vue&#45;&gt;src/components/UserTable.vue</title>
<path fill="none" stroke="#000000" stroke-width="2" stroke-opacity="0.200000" d="M567.46,-42.33C576.96,-45.12 587.51,-48.22 597.48,-51.16"/>
<polygon fill="#000000" fill-opacity="0.200000" stroke="#000000" stroke-width="2" stroke-opacity="0.200000" points="596.8,-53.15 603.15,-52.82 597.99,-49.12 596.8,-53.15"/>
</g>
<!-- src/components/HelloWorld.vue -->
<g id="node7" class="node">
<title>src/components/HelloWorld.vue</title>
<g id="a_node7"><a xlink:href="src/components/HelloWorld.vue" xlink:title="HelloWorld.vue">
<path fill="#41f083" stroke="black" d="M445.58,-101.88C445.58,-101.88 378.42,-101.88 378.42,-101.88 375.46,-101.88 372.5,-98.92 372.5,-95.96 372.5,-95.96 372.5,-90.04 372.5,-90.04 372.5,-87.08 375.46,-84.12 378.42,-84.12 378.42,-84.12 445.58,-84.12 445.58,-84.12 448.54,-84.12 451.5,-87.08 451.5,-90.04 451.5,-90.04 451.5,-95.96 451.5,-95.96 451.5,-98.92 448.54,-101.88 445.58,-101.88"/>
<text text-anchor="start" x="380.5" y="-89.33" font-family="Helvetica,sans-Serif" font-size="9.00">HelloWorld.vue</text>
</a>
</g>
</g>
<!-- src/models/user.ts -->
<g id="node9" class="node">
<title>src/models/user.ts</title>
<g id="a_node9"><a xlink:href="src/models/user.ts" xlink:title="user.ts">
<path fill="#ddfeff" stroke="black" d="M762.83,-89.88C762.83,-89.88 720.67,-89.88 720.67,-89.88 717.71,-89.88 714.75,-86.92 714.75,-83.96 714.75,-83.96 714.75,-78.04 714.75,-78.04 714.75,-75.08 717.71,-72.12 720.67,-72.12 720.67,-72.12 762.83,-72.12 762.83,-72.12 765.79,-72.12 768.75,-75.08 768.75,-78.04 768.75,-78.04 768.75,-83.96 768.75,-83.96 768.75,-86.92 765.79,-89.88 762.83,-89.88"/>
<text text-anchor="start" x="728.25" y="-77.33" font-family="Helvetica,sans-Serif" font-size="9.00">user.ts</text>
</a>
</g>
</g>
<!-- src/components/UserTable.vue&#45;&gt;src/models/user.ts -->
<g id="edge6" class="edge">
<title>src/components/UserTable.vue&#45;&gt;src/models/user.ts</title>
<path fill="none" stroke="#000000" stroke-width="2" stroke-opacity="0.200000" d="M676.79,-69.6C686.26,-71.29 696.41,-73.1 705.77,-74.77"/>
<polygon fill="#000000" fill-opacity="0.200000" stroke="#000000" stroke-width="2" stroke-opacity="0.200000" points="705.21,-76.8 711.48,-75.78 705.94,-72.66 705.21,-76.8"/>
</g>
<!-- src/components/UserTableRow.vue -->
<g id="node10" class="node">
<title>src/components/UserTableRow.vue</title>
<g id="a_node10"><a xlink:href="src/components/UserTableRow.vue" xlink:title="UserTableRow.vue">
<path fill="#41f083" stroke="black" d="M452.71,-131.88C452.71,-131.88 371.29,-131.88 371.29,-131.88 368.33,-131.88 365.38,-128.92 365.38,-125.96 365.38,-125.96 365.38,-120.04 365.38,-120.04 365.38,-117.08 368.33,-114.12 371.29,-114.12 371.29,-114.12 452.71,-114.12 452.71,-114.12 455.67,-114.12 458.62,-117.08 458.62,-120.04 458.62,-120.04 458.62,-125.96 458.62,-125.96 458.62,-128.92 455.67,-131.88 452.71,-131.88"/>
<text text-anchor="start" x="373.38" y="-119.33" font-family="Helvetica,sans-Serif" font-size="9.00">UserTableRow.vue</text>
</a>
</g>
</g>
<!-- src/components/UserTableRow.vue&#45;&gt;src/models/user.ts -->
<g id="edge7" class="edge">
<title>src/components/UserTableRow.vue&#45;&gt;src/models/user.ts</title>
<path fill="none" stroke="#000000" stroke-width="2" stroke-opacity="0.200000" d="M458.84,-117.16C514.55,-110.06 611.43,-97.7 694.5,-87 698.11,-86.53 701.89,-86.05 705.65,-85.56"/>
<polygon fill="#000000" fill-opacity="0.200000" stroke="#000000" stroke-width="2" stroke-opacity="0.200000" points="705.65,-87.68 711.33,-84.82 705.11,-83.51 705.65,-87.68"/>
</g>
<!-- src/main.ts -->
<g id="node11" class="node">
<title>src/main.ts</title>
<g id="a_node11"><a xlink:href="src/main.ts" xlink:title="main.ts">
<path fill="#ddfeff" stroke="black" d="M69.46,-69.88C69.46,-69.88 27.29,-69.88 27.29,-69.88 24.33,-69.88 21.38,-66.92 21.38,-63.96 21.38,-63.96 21.38,-58.04 21.38,-58.04 21.38,-55.08 24.33,-52.12 27.29,-52.12 27.29,-52.12 69.46,-52.12 69.46,-52.12 72.42,-52.12 75.38,-55.08 75.38,-58.04 75.38,-58.04 75.38,-63.96 75.38,-63.96 75.38,-66.92 72.42,-69.88 69.46,-69.88"/>
<text text-anchor="start" x="33.75" y="-57.33" font-family="Helvetica,sans-Serif" font-size="9.00">main.ts</text>
</a>
</g>
</g>
<!-- src/main.ts&#45;&gt;src/App.vue -->
<g id="edge8" class="edge">
<title>src/main.ts&#45;&gt;src/App.vue</title>
<path fill="none" stroke="#000000" stroke-width="2" stroke-opacity="0.200000" d="M66.87,-51.74C73.65,-48.25 81.5,-44.33 88.75,-41 89.62,-40.6 90.51,-40.2 91.4,-39.8"/>
<polygon fill="#000000" fill-opacity="0.200000" stroke="#000000" stroke-width="2" stroke-opacity="0.200000" points="92.15,-41.76 96.82,-37.45 90.48,-37.91 92.15,-41.76"/>
</g>
<!-- src/router/index.ts -->
<g id="node12" class="node">
<title>src/router/index.ts</title>
<g id="a_node12"><a xlink:href="src/router/index.ts" xlink:title="index.ts">
<path fill="#ddfeff" stroke="black" d="M144.83,-69.88C144.83,-69.88 102.67,-69.88 102.67,-69.88 99.71,-69.88 96.75,-66.92 96.75,-63.96 96.75,-63.96 96.75,-58.04 96.75,-58.04 96.75,-55.08 99.71,-52.12 102.67,-52.12 102.67,-52.12 144.83,-52.12 144.83,-52.12 147.79,-52.12 150.75,-55.08 150.75,-58.04 150.75,-58.04 150.75,-63.96 150.75,-63.96 150.75,-66.92 147.79,-69.88 144.83,-69.88"/>
<text text-anchor="start" x="108" y="-57.33" font-family="Helvetica,sans-Serif" font-size="9.00">index.ts</text>
</a>
</g>
</g>
<!-- src/main.ts&#45;&gt;src/router/index.ts -->
<g id="edge9" class="edge">
<title>src/main.ts&#45;&gt;src/router/index.ts</title>
<path fill="none" stroke="#000000" stroke-width="2" stroke-opacity="0.200000" d="M75.87,-61C79.65,-61 83.6,-61 87.52,-61"/>
<polygon fill="#000000" fill-opacity="0.200000" stroke="#000000" stroke-width="2" stroke-opacity="0.200000" points="87.52,-63.1 93.52,-61 87.52,-58.9 87.52,-63.1"/>
</g>
<!-- src/style.css -->
<g id="node13" class="node">
<title>src/style.css</title>
<g id="a_node13"><a xlink:href="src/style.css" xlink:title="style.css">
<path fill="#ffffcc" stroke="black" d="M144.83,-121.88C144.83,-121.88 102.67,-121.88 102.67,-121.88 99.71,-121.88 96.75,-118.92 96.75,-115.96 96.75,-115.96 96.75,-110.04 96.75,-110.04 96.75,-107.08 99.71,-104.12 102.67,-104.12 102.67,-104.12 144.83,-104.12 144.83,-104.12 147.79,-104.12 150.75,-107.08 150.75,-110.04 150.75,-110.04 150.75,-115.96 150.75,-115.96 150.75,-118.92 147.79,-121.88 144.83,-121.88"/>
<text text-anchor="start" x="106.5" y="-109.33" font-family="Helvetica,sans-Serif" font-size="9.00">style.css</text>
</a>
</g>
</g>
<!-- src/main.ts&#45;&gt;src/style.css -->
<g id="edge10" class="edge">
<title>src/main.ts&#45;&gt;src/style.css</title>
<path fill="none" stroke="#000000" stroke-width="2" stroke-opacity="0.200000" d="M57.03,-70.15C64.44,-78.55 76.35,-90.89 88.75,-99 89,-99.16 89.25,-99.33 89.51,-99.49"/>
<polygon fill="#000000" fill-opacity="0.200000" stroke="#000000" stroke-width="2" stroke-opacity="0.200000" points="88.4,-101.28 94.67,-102.33 90.43,-97.6 88.4,-101.28"/>
</g>
<!-- src/router/route.ts -->
<g id="node16" class="node">
<title>src/router/route.ts</title>
<g id="a_node16"><a xlink:href="src/router/route.ts" xlink:title="route.ts">
<path fill="#ddfeff" stroke="black" d="M211.83,-69.88C211.83,-69.88 169.67,-69.88 169.67,-69.88 166.71,-69.88 163.75,-66.92 163.75,-63.96 163.75,-63.96 163.75,-58.04 163.75,-58.04 163.75,-55.08 166.71,-52.12 169.67,-52.12 169.67,-52.12 211.83,-52.12 211.83,-52.12 214.79,-52.12 217.75,-55.08 217.75,-58.04 217.75,-58.04 217.75,-63.96 217.75,-63.96 217.75,-66.92 214.79,-69.88 211.83,-69.88"/>
<text text-anchor="start" x="175.75" y="-57.33" font-family="Helvetica,sans-Serif" font-size="9.00">route.ts</text>
</a>
</g>
</g>
<!-- src/router/index.ts&#45;&gt;src/router/route.ts -->
<g id="edge13" class="edge">
<title>src/router/index.ts&#45;&gt;src/router/route.ts</title>
<path fill="none" stroke="#000000" stroke-width="2" stroke-opacity="0.200000" d="M151.19,-61C152.33,-61 153.49,-61 154.65,-61"/>
<polygon fill="#000000" fill-opacity="0.200000" stroke="#000000" stroke-width="2" stroke-opacity="0.200000" points="154.52,-63.1 160.52,-61 154.52,-58.9 154.52,-63.1"/>
</g>
<!-- src/pages/AboutPage.vue -->
<g id="node14" class="node">
<title>src/pages/AboutPage.vue</title>
<g id="a_node14"><a xlink:href="src/pages/AboutPage.vue" xlink:title="AboutPage.vue">
<path fill="#41f083" stroke="black" d="M315.21,-55.88C315.21,-55.88 248.04,-55.88 248.04,-55.88 245.08,-55.88 242.12,-52.92 242.12,-49.96 242.12,-49.96 242.12,-44.04 242.12,-44.04 242.12,-41.08 245.08,-38.12 248.04,-38.12 248.04,-38.12 315.21,-38.12 315.21,-38.12 318.17,-38.12 321.12,-41.08 321.12,-44.04 321.12,-44.04 321.12,-49.96 321.12,-49.96 321.12,-52.92 318.17,-55.88 315.21,-55.88"/>
<text text-anchor="start" x="250.12" y="-43.33" font-family="Helvetica,sans-Serif" font-size="9.00">AboutPage.vue</text>
</a>
</g>
</g>
<!-- src/pages/HomePage.vue -->
<g id="node15" class="node">
<title>src/pages/HomePage.vue</title>
<g id="a_node15"><a xlink:href="src/pages/HomePage.vue" xlink:title="HomePage.vue">
<path fill="#41f083" stroke="black" d="M315.58,-85.88C315.58,-85.88 247.67,-85.88 247.67,-85.88 244.71,-85.88 241.75,-82.92 241.75,-79.96 241.75,-79.96 241.75,-74.04 241.75,-74.04 241.75,-71.08 244.71,-68.12 247.67,-68.12 247.67,-68.12 315.58,-68.12 315.58,-68.12 318.54,-68.12 321.5,-71.08 321.5,-74.04 321.5,-74.04 321.5,-79.96 321.5,-79.96 321.5,-82.92 318.54,-85.88 315.58,-85.88"/>
<text text-anchor="start" x="249.75" y="-73.33" font-family="Helvetica,sans-Serif" font-size="9.00">HomePage.vue</text>
</a>
</g>
</g>
<!-- src/pages/HomePage.vue&#45;&gt;src/components/CompositionComponent.vue -->
<g id="edge11" class="edge">
<title>src/pages/HomePage.vue&#45;&gt;src/components/CompositionComponent.vue</title>
<path fill="none" stroke="#000000" stroke-width="2" stroke-opacity="0.200000" d="M320.28,-67.81C323.58,-66.18 326.71,-64.26 329.5,-62 335.07,-57.49 331.69,-52.2 337.5,-48 338.17,-47.52 338.85,-47.05 339.54,-46.59"/>
<polygon fill="#000000" fill-opacity="0.200000" stroke="#000000" stroke-width="2" stroke-opacity="0.200000" points="340.47,-48.48 344.69,-43.72 338.43,-44.81 340.47,-48.48"/>
</g>
<!-- src/pages/HomePage.vue&#45;&gt;src/components/HelloWorld.vue -->
<g id="edge12" class="edge">
<title>src/pages/HomePage.vue&#45;&gt;src/components/HelloWorld.vue</title>
<path fill="none" stroke="#000000" stroke-width="2" stroke-opacity="0.200000" d="M321.84,-81.89C334.9,-83.52 349.6,-85.35 363.24,-87.05"/>
<polygon fill="#000000" fill-opacity="0.200000" stroke="#000000" stroke-width="2" stroke-opacity="0.200000" points="362.81,-89.11 369.02,-87.77 363.33,-84.94 362.81,-89.11"/>
</g>
<!-- src/router/route.ts&#45;&gt;src/pages/AboutPage.vue -->
<g id="edge14" class="edge">
<title>src/router/route.ts&#45;&gt;src/pages/AboutPage.vue</title>
<path fill="none" stroke="#000000" stroke-width="2" stroke-opacity="0.200000" d="M217.93,-56.88C222.72,-56.12 227.86,-55.31 233.04,-54.5"/>
<polygon fill="#000000" fill-opacity="0.200000" stroke="#000000" stroke-width="2" stroke-opacity="0.200000" points="233.19,-56.6 238.79,-53.59 232.54,-52.45 233.19,-56.6"/>
</g>
<!-- src/router/route.ts&#45;&gt;src/pages/HomePage.vue -->
<g id="edge15" class="edge">
<title>src/router/route.ts&#45;&gt;src/pages/HomePage.vue</title>
<path fill="none" stroke="#000000" stroke-width="2" stroke-opacity="0.200000" d="M217.93,-65.71C222.66,-66.56 227.71,-67.47 232.83,-68.4"/>
<polygon fill="#000000" fill-opacity="0.200000" stroke="#000000" stroke-width="2" stroke-opacity="0.200000" points="232.19,-70.41 238.47,-69.41 232.94,-66.28 232.19,-70.41"/>
</g>
<!-- src/vite&#45;env.d.ts -->
<g id="node17" class="node">
<title>src/vite&#45;env.d.ts</title>
<g id="a_node17"><a xlink:href="src/vite-env.d.ts" xlink:title="vite&#45;env.d.ts">
<path fill="#ccffcc" stroke="black" d="M74.83,-129.88C74.83,-129.88 21.92,-129.88 21.92,-129.88 18.96,-129.88 16,-126.92 16,-123.96 16,-123.96 16,-118.04 16,-118.04 16,-115.08 18.96,-112.12 21.92,-112.12 21.92,-112.12 74.83,-112.12 74.83,-112.12 77.79,-112.12 80.75,-115.08 80.75,-118.04 80.75,-118.04 80.75,-123.96 80.75,-123.96 80.75,-126.92 77.79,-129.88 74.83,-129.88"/>
<text text-anchor="start" x="24" y="-117.33" font-family="Helvetica,sans-Serif" font-size="9.00">vite&#45;env.d.ts</text>
</a>
</g>
</g>
</g>
</svg>
