<?xml version="1.0" encoding="UTF-8" standalone="no"?>
<!DOCTYPE svg PUBLIC "-//W3C//DTD SVG 1.1//EN"
 "http://www.w3.org/Graphics/SVG/1.1/DTD/svg11.dtd">
<!-- Generated by graphviz version 11.0.0 (20240428.1522)
 -->
<!-- Title: dependency&#45;cruiser output Pages: 1 -->
<svg width="934pt" height="196pt"
 viewBox="0.00 0.00 933.75 196.00" xmlns="http://www.w3.org/2000/svg" xmlns:xlink="http://www.w3.org/1999/xlink">
<g id="graph0" class="graph" transform="scale(1 1) rotate(0) translate(4 192)">
<title>dependency&#45;cruiser output</title>
<polygon fill="white" stroke="none" points="-4,4 -4,-192 929.75,-192 929.75,4 -4,4"/>
<g id="clust1" class="cluster">
<title>cluster_src</title>
<path fill="#ffffff" stroke="black" stroke-width="2" d="M20,-8C20,-8 905.75,-8 905.75,-8 911.75,-8 917.75,-14 917.75,-20 917.75,-20 917.75,-168 917.75,-168 917.75,-174 911.75,-180 905.75,-180 905.75,-180 20,-180 20,-180 14,-180 8,-174 8,-168 8,-168 8,-20 8,-20 8,-14 14,-8 20,-8"/>
<text text-anchor="middle" x="462.88" y="-167.45" font-family="Helvetica,sans-Serif" font-weight="bold" font-size="9.00">src</text>
</g>
<g id="clust2" class="cluster">
<title>cluster_src/components</title>
<path fill="#ffffff" stroke="black" stroke-width="2" d="M360,-26C360,-26 811.25,-26 811.25,-26 817.25,-26 823.25,-32 823.25,-38 823.25,-38 823.25,-96 823.25,-96 823.25,-102 817.25,-108 811.25,-108 811.25,-108 360,-108 360,-108 354,-108 348,-102 348,-96 348,-96 348,-38 348,-38 348,-32 354,-26 360,-26"/>
<text text-anchor="middle" x="585.62" y="-95.45" font-family="Helvetica,sans-Serif" font-weight="bold" font-size="9.00">components</text>
</g>
<g id="clust3" class="cluster">
<title>cluster_src/models</title>
<path fill="#ffffff" stroke="black" stroke-width="2" d="M843.25,-62C843.25,-62 897.75,-62 897.75,-62 903.75,-62 909.75,-68 909.75,-74 909.75,-74 909.75,-132 909.75,-132 909.75,-138 903.75,-144 897.75,-144 897.75,-144 843.25,-144 843.25,-144 837.25,-144 831.25,-138 831.25,-132 831.25,-132 831.25,-74 831.25,-74 831.25,-68 837.25,-62 843.25,-62"/>
<text text-anchor="middle" x="870.5" y="-131.45" font-family="Helvetica,sans-Serif" font-weight="bold" font-size="9.00">models</text>
</g>
<g id="clust4" class="cluster">
<title>cluster_src/router</title>
<path fill="#ffffff" stroke="black" stroke-width="2" d="M110.5,-42C110.5,-42 226.5,-42 226.5,-42 232.5,-42 238.5,-48 238.5,-54 238.5,-54 238.5,-82 238.5,-82 238.5,-88 232.5,-94 226.5,-94 226.5,-94 110.5,-94 110.5,-94 104.5,-94 98.5,-88 98.5,-82 98.5,-82 98.5,-54 98.5,-54 98.5,-48 104.5,-42 110.5,-42"/>
<text text-anchor="middle" x="168.5" y="-81.45" font-family="Helvetica,sans-Serif" font-weight="bold" font-size="9.00">router</text>
</g>
<g id="clust5" class="cluster">
<title>cluster_src/store</title>
<path fill="#ffffff" stroke="black" stroke-width="2" d="M110.5,-102C110.5,-102 156.5,-102 156.5,-102 162.5,-102 168.5,-108 168.5,-114 168.5,-114 168.5,-142 168.5,-142 168.5,-148 162.5,-154 156.5,-154 156.5,-154 110.5,-154 110.5,-154 104.5,-154 98.5,-148 98.5,-142 98.5,-142 98.5,-114 98.5,-114 98.5,-108 104.5,-102 110.5,-102"/>
<text text-anchor="middle" x="133.5" y="-141.45" font-family="Helvetica,sans-Serif" font-weight="bold" font-size="9.00">store</text>
</g>
<g id="clust6" class="cluster">
<title>cluster_src/views</title>
<path fill="#ffffff" stroke="black" stroke-width="2" d="M258.5,-21C258.5,-21 328,-21 328,-21 334,-21 340,-27 340,-33 340,-33 340,-91 340,-91 340,-97 334,-103 328,-103 328,-103 258.5,-103 258.5,-103 252.5,-103 246.5,-97 246.5,-91 246.5,-91 246.5,-33 246.5,-33 246.5,-27 252.5,-21 258.5,-21"/>
<text text-anchor="middle" x="293.25" y="-90.45" font-family="Helvetica,sans-Serif" font-weight="bold" font-size="9.00">views</text>
</g>
<!-- src/App.vue -->
<g id="node1" class="node">
<title>src/App.vue</title>
<g id="a_node1"><a xlink:href="src/App.vue" xlink:title="App.vue">
<path fill="#41f083" stroke="black" d="M154.58,-33.88C154.58,-33.88 112.42,-33.88 112.42,-33.88 109.46,-33.88 106.5,-30.92 106.5,-27.96 106.5,-27.96 106.5,-22.04 106.5,-22.04 106.5,-19.08 109.46,-16.12 112.42,-16.12 112.42,-16.12 154.58,-16.12 154.58,-16.12 157.54,-16.12 160.5,-19.08 160.5,-22.04 160.5,-22.04 160.5,-27.96 160.5,-27.96 160.5,-30.92 157.54,-33.88 154.58,-33.88"/>
<text text-anchor="start" x="116.62" y="-21.32" font-family="Helvetica,sans-Serif" font-size="9.00">App.vue</text>
</a>
</g>
</g>
<!-- src/components/ClassStyleComponent.vue -->
<g id="node2" class="node">
<title>src/components/ClassStyleComponent.vue</title>
<g id="a_node2"><a xlink:href="src/components/ClassStyleComponent.vue" xlink:title="ClassStyleComponent.vue">
<path fill="#41f083" stroke="black" d="M474.83,-51.88C474.83,-51.88 361.92,-51.88 361.92,-51.88 358.96,-51.88 356,-48.92 356,-45.96 356,-45.96 356,-40.04 356,-40.04 356,-37.08 358.96,-34.12 361.92,-34.12 361.92,-34.12 474.83,-34.12 474.83,-34.12 477.79,-34.12 480.75,-37.08 480.75,-40.04 480.75,-40.04 480.75,-45.96 480.75,-45.96 480.75,-48.92 477.79,-51.88 474.83,-51.88"/>
<text text-anchor="start" x="364" y="-39.33" font-family="Helvetica,sans-Serif" font-size="9.00">ClassStyleComponent.vue</text>
</a>
</g>
</g>
<!-- src/components/TableSection.vue -->
<g id="node3" class="node">
<title>src/components/TableSection.vue</title>
<g id="a_node3"><a xlink:href="src/components/TableSection.vue" xlink:title="TableSection.vue">
<path fill="#41f083" stroke="black" d="M574.33,-66.88C574.33,-66.88 499.67,-66.88 499.67,-66.88 496.71,-66.88 493.75,-63.92 493.75,-60.96 493.75,-60.96 493.75,-55.04 493.75,-55.04 493.75,-52.08 496.71,-49.12 499.67,-49.12 499.67,-49.12 574.33,-49.12 574.33,-49.12 577.29,-49.12 580.25,-52.08 580.25,-55.04 580.25,-55.04 580.25,-60.96 580.25,-60.96 580.25,-63.92 577.29,-66.88 574.33,-66.88"/>
<text text-anchor="start" x="501.75" y="-54.33" font-family="Helvetica,sans-Serif" font-size="9.00">TableSection.vue</text>
</a>
</g>
</g>
<!-- src/components/ClassStyleComponent.vue&#45;&gt;src/components/TableSection.vue -->
<g id="edge1" class="edge">
<title>src/components/ClassStyleComponent.vue&#45;&gt;src/components/TableSection.vue</title>
<path fill="none" stroke="#000000" stroke-width="2" stroke-opacity="0.200000" d="M481.1,-50.94C482.27,-51.09 483.44,-51.24 484.6,-51.39"/>
<polygon fill="#000000" fill-opacity="0.200000" stroke="#000000" stroke-width="2" stroke-opacity="0.200000" points="484.18,-53.45 490.4,-52.14 484.72,-49.29 484.18,-53.45"/>
</g>
<!-- src/components/CompanyTable.vue -->
<g id="node4" class="node">
<title>src/components/CompanyTable.vue</title>
<g id="a_node4"><a xlink:href="src/components/CompanyTable.vue" xlink:title="CompanyTable.vue">
<path fill="#41f083" stroke="black" d="M682.83,-81.88C682.83,-81.88 599.17,-81.88 599.17,-81.88 596.21,-81.88 593.25,-78.92 593.25,-75.96 593.25,-75.96 593.25,-70.04 593.25,-70.04 593.25,-67.08 596.21,-64.12 599.17,-64.12 599.17,-64.12 682.83,-64.12 682.83,-64.12 685.79,-64.12 688.75,-67.08 688.75,-70.04 688.75,-70.04 688.75,-75.96 688.75,-75.96 688.75,-78.92 685.79,-81.88 682.83,-81.88"/>
<text text-anchor="start" x="601.25" y="-69.33" font-family="Helvetica,sans-Serif" font-size="9.00">CompanyTable.vue</text>
</a>
</g>
</g>
<!-- src/components/TableSection.vue&#45;&gt;src/components/CompanyTable.vue -->
<g id="edge6" class="edge">
<title>src/components/TableSection.vue&#45;&gt;src/components/CompanyTable.vue</title>
<path fill="none" stroke="#000000" stroke-width="2" stroke-opacity="0.200000" d="M580.67,-64.27C581.8,-64.44 582.94,-64.61 584.09,-64.78"/>
<polygon fill="#000000" fill-opacity="0.200000" stroke="#000000" stroke-width="2" stroke-opacity="0.200000" points="583.66,-66.84 589.9,-65.63 584.27,-62.68 583.66,-66.84"/>
</g>
<!-- src/models/company.ts -->
<g id="node5" class="node">
<title>src/models/company.ts</title>
<g id="a_node5"><a xlink:href="src/models/company.ts" xlink:title="company.ts">
<path fill="#ddfeff" stroke="black" d="M895.83,-117.88C895.83,-117.88 845.17,-117.88 845.17,-117.88 842.21,-117.88 839.25,-114.92 839.25,-111.96 839.25,-111.96 839.25,-106.04 839.25,-106.04 839.25,-103.08 842.21,-100.12 845.17,-100.12 845.17,-100.12 895.83,-100.12 895.83,-100.12 898.79,-100.12 901.75,-103.08 901.75,-106.04 901.75,-106.04 901.75,-111.96 901.75,-111.96 901.75,-114.92 898.79,-117.88 895.83,-117.88"/>
<text text-anchor="start" x="847.25" y="-105.33" font-family="Helvetica,sans-Serif" font-size="9.00">company.ts</text>
</a>
</g>
</g>
<!-- src/components/TableSection.vue&#45;&gt;src/models/company.ts -->
<g id="edge5" class="edge">
<title>src/components/TableSection.vue&#45;&gt;src/models/company.ts</title>
<path fill="none" stroke="#000000" stroke-width="2" stroke-opacity="0.200000" d="M551.96,-67.19C562.8,-73.92 578.43,-82.76 593.25,-88 673.79,-116.48 775.55,-115.55 830.31,-112.31"/>
<polygon fill="#000000" fill-opacity="0.200000" stroke="#000000" stroke-width="2" stroke-opacity="0.200000" points="830.14,-114.43 835.99,-111.95 829.87,-110.23 830.14,-114.43"/>
</g>
<!-- src/components/UserTable.vue -->
<g id="node8" class="node">
<title>src/components/UserTable.vue</title>
<g id="a_node8"><a xlink:href="src/components/UserTable.vue" xlink:title="UserTable.vue">
<path fill="#41f083" stroke="black" d="M672.71,-51.88C672.71,-51.88 609.29,-51.88 609.29,-51.88 606.33,-51.88 603.38,-48.92 603.38,-45.96 603.38,-45.96 603.38,-40.04 603.38,-40.04 603.38,-37.08 606.33,-34.12 609.29,-34.12 609.29,-34.12 672.71,-34.12 672.71,-34.12 675.67,-34.12 678.62,-37.08 678.62,-40.04 678.62,-40.04 678.62,-45.96 678.62,-45.96 678.62,-48.92 675.67,-51.88 672.71,-51.88"/>
<text text-anchor="start" x="611.38" y="-39.33" font-family="Helvetica,sans-Serif" font-size="9.00">UserTable.vue</text>
</a>
</g>
</g>
<!-- src/components/TableSection.vue&#45;&gt;src/components/UserTable.vue -->
<g id="edge7" class="edge">
<title>src/components/TableSection.vue&#45;&gt;src/components/UserTable.vue</title>
<path fill="none" stroke="#000000" stroke-width="2" stroke-opacity="0.200000" d="M580.67,-51.73C585.19,-51.06 589.8,-50.38 594.36,-49.71"/>
<polygon fill="#000000" fill-opacity="0.200000" stroke="#000000" stroke-width="2" stroke-opacity="0.200000" points="594.39,-51.83 600.02,-48.88 593.78,-47.68 594.39,-51.83"/>
</g>
<!-- src/components/CompanyTable.vue&#45;&gt;src/models/company.ts -->
<g id="edge2" class="edge">
<title>src/components/CompanyTable.vue&#45;&gt;src/models/company.ts</title>
<path fill="none" stroke="#000000" stroke-width="2" stroke-opacity="0.200000" d="M658.96,-82.29C670.63,-88.2 686.68,-95.39 701.75,-99 744.86,-109.32 795.88,-110.91 830.24,-110.5"/>
<polygon fill="#000000" fill-opacity="0.200000" stroke="#000000" stroke-width="2" stroke-opacity="0.200000" points="830.05,-112.61 836.01,-110.4 829.97,-108.41 830.05,-112.61"/>
</g>
<!-- src/components/CompanyTableRow.vue -->
<g id="node6" class="node">
<title>src/components/CompanyTableRow.vue</title>
<g id="a_node6"><a xlink:href="src/components/CompanyTableRow.vue" xlink:title="CompanyTableRow.vue">
<path fill="#41f083" stroke="black" d="M809.33,-81.88C809.33,-81.88 707.67,-81.88 707.67,-81.88 704.71,-81.88 701.75,-78.92 701.75,-75.96 701.75,-75.96 701.75,-70.04 701.75,-70.04 701.75,-67.08 704.71,-64.12 707.67,-64.12 707.67,-64.12 809.33,-64.12 809.33,-64.12 812.29,-64.12 815.25,-67.08 815.25,-70.04 815.25,-70.04 815.25,-75.96 815.25,-75.96 815.25,-78.92 812.29,-81.88 809.33,-81.88"/>
<text text-anchor="start" x="709.75" y="-69.33" font-family="Helvetica,sans-Serif" font-size="9.00">CompanyTableRow.vue</text>
</a>
</g>
</g>
<!-- src/components/CompanyTable.vue&#45;&gt;src/components/CompanyTableRow.vue -->
<g id="edge3" class="edge">
<title>src/components/CompanyTable.vue&#45;&gt;src/components/CompanyTableRow.vue</title>
<path fill="none" stroke="#000000" stroke-width="2" stroke-opacity="0.200000" d="M688.98,-73C690.14,-73 691.3,-73 692.47,-73"/>
<polygon fill="#000000" fill-opacity="0.200000" stroke="#000000" stroke-width="2" stroke-opacity="0.200000" points="692.46,-75.1 698.46,-73 692.46,-70.9 692.46,-75.1"/>
</g>
<!-- src/components/CompanyTableRow.vue&#45;&gt;src/models/company.ts -->
<g id="edge4" class="edge">
<title>src/components/CompanyTableRow.vue&#45;&gt;src/models/company.ts</title>
<path fill="none" stroke="#000000" stroke-width="2" stroke-opacity="0.200000" d="M788.11,-82.36C801.74,-86.82 818.19,-92.21 832.73,-96.97"/>
<polygon fill="#000000" fill-opacity="0.200000" stroke="#000000" stroke-width="2" stroke-opacity="0.200000" points="831.8,-98.87 838.15,-98.74 833.1,-94.88 831.8,-98.87"/>
</g>
<!-- src/components/HelloWorld.vue -->
<g id="node7" class="node">
<title>src/components/HelloWorld.vue</title>
<g id="a_node7"><a xlink:href="src/components/HelloWorld.vue" xlink:title="HelloWorld.vue">
<path fill="#41f083" stroke="black" d="M451.96,-81.88C451.96,-81.88 384.79,-81.88 384.79,-81.88 381.83,-81.88 378.88,-78.92 378.88,-75.96 378.88,-75.96 378.88,-70.04 378.88,-70.04 378.88,-67.08 381.83,-64.12 384.79,-64.12 384.79,-64.12 451.96,-64.12 451.96,-64.12 454.92,-64.12 457.88,-67.08 457.88,-70.04 457.88,-70.04 457.88,-75.96 457.88,-75.96 457.88,-78.92 454.92,-81.88 451.96,-81.88"/>
<text text-anchor="start" x="386.88" y="-69.33" font-family="Helvetica,sans-Serif" font-size="9.00">HelloWorld.vue</text>
</a>
</g>
</g>
<!-- src/models/user.ts -->
<g id="node9" class="node">
<title>src/models/user.ts</title>
<g id="a_node9"><a xlink:href="src/models/user.ts" xlink:title="user.ts">
<path fill="#ddfeff" stroke="black" d="M891.58,-87.88C891.58,-87.88 849.42,-87.88 849.42,-87.88 846.46,-87.88 843.5,-84.92 843.5,-81.96 843.5,-81.96 843.5,-76.04 843.5,-76.04 843.5,-73.08 846.46,-70.12 849.42,-70.12 849.42,-70.12 891.58,-70.12 891.58,-70.12 894.54,-70.12 897.5,-73.08 897.5,-76.04 897.5,-76.04 897.5,-81.96 897.5,-81.96 897.5,-84.92 894.54,-87.88 891.58,-87.88"/>
<text text-anchor="start" x="857" y="-75.33" font-family="Helvetica,sans-Serif" font-size="9.00">user.ts</text>
</a>
</g>
</g>
<!-- src/components/UserTable.vue&#45;&gt;src/models/user.ts -->
<g id="edge8" class="edge">
<title>src/components/UserTable.vue&#45;&gt;src/models/user.ts</title>
<path fill="none" stroke="#000000" stroke-width="2" stroke-opacity="0.200000" d="M678.9,-51.41C682.47,-53.2 685.84,-55.37 688.75,-58 699.52,-67.76 689.6,-80.02 701.75,-88 724.32,-102.82 796.37,-90.59 823.25,-88 826.91,-87.65 830.72,-87.14 834.5,-86.54"/>
<polygon fill="#000000" fill-opacity="0.200000" stroke="#000000" stroke-width="2" stroke-opacity="0.200000" points="834.68,-88.64 840.23,-85.54 833.96,-84.51 834.68,-88.64"/>
</g>
<!-- src/components/UserTableRow.vue -->
<g id="node10" class="node">
<title>src/components/UserTableRow.vue</title>
<g id="a_node10"><a xlink:href="src/components/UserTableRow.vue" xlink:title="UserTableRow.vue">
<path fill="#41f083" stroke="black" d="M799.21,-51.88C799.21,-51.88 717.79,-51.88 717.79,-51.88 714.83,-51.88 711.88,-48.92 711.88,-45.96 711.88,-45.96 711.88,-40.04 711.88,-40.04 711.88,-37.08 714.83,-34.12 717.79,-34.12 717.79,-34.12 799.21,-34.12 799.21,-34.12 802.17,-34.12 805.12,-37.08 805.12,-40.04 805.12,-40.04 805.12,-45.96 805.12,-45.96 805.12,-48.92 802.17,-51.88 799.21,-51.88"/>
<text text-anchor="start" x="719.88" y="-39.33" font-family="Helvetica,sans-Serif" font-size="9.00">UserTableRow.vue</text>
</a>
</g>
</g>
<!-- src/components/UserTable.vue&#45;&gt;src/components/UserTableRow.vue -->
<g id="edge9" class="edge">
<title>src/components/UserTable.vue&#45;&gt;src/components/UserTableRow.vue</title>
<path fill="none" stroke="#000000" stroke-width="2" stroke-opacity="0.200000" d="M678.86,-43C686.52,-43 694.75,-43 702.89,-43"/>
<polygon fill="#000000" fill-opacity="0.200000" stroke="#000000" stroke-width="2" stroke-opacity="0.200000" points="702.64,-45.1 708.64,-43 702.64,-40.9 702.64,-45.1"/>
</g>
<!-- src/components/UserTableRow.vue&#45;&gt;src/models/user.ts -->
<g id="edge10" class="edge">
<title>src/components/UserTableRow.vue&#45;&gt;src/models/user.ts</title>
<path fill="none" stroke="#000000" stroke-width="2" stroke-opacity="0.200000" d="M804.06,-52.31C810.55,-54 817.12,-55.91 823.25,-58 829.94,-60.28 836.98,-63.19 843.48,-66.12"/>
<polygon fill="#000000" fill-opacity="0.200000" stroke="#000000" stroke-width="2" stroke-opacity="0.200000" points="842.31,-67.89 848.63,-68.51 844.07,-64.08 842.31,-67.89"/>
</g>
<!-- src/main.ts -->
<g id="node11" class="node">
<title>src/main.ts</title>
<g id="a_node11"><a xlink:href="src/main.ts" xlink:title="main.ts">
<path fill="#ddfeff" stroke="black" d="M74.33,-67.88C74.33,-67.88 32.17,-67.88 32.17,-67.88 29.21,-67.88 26.25,-64.92 26.25,-61.96 26.25,-61.96 26.25,-56.04 26.25,-56.04 26.25,-53.08 29.21,-50.12 32.17,-50.12 32.17,-50.12 74.33,-50.12 74.33,-50.12 77.29,-50.12 80.25,-53.08 80.25,-56.04 80.25,-56.04 80.25,-61.96 80.25,-61.96 80.25,-64.92 77.29,-67.88 74.33,-67.88"/>
<text text-anchor="start" x="38.62" y="-55.33" font-family="Helvetica,sans-Serif" font-size="9.00">main.ts</text>
</a>
</g>
</g>
<!-- src/main.ts&#45;&gt;src/App.vue -->
<g id="edge11" class="edge">
<title>src/main.ts&#45;&gt;src/App.vue</title>
<path fill="none" stroke="#000000" stroke-width="2" stroke-opacity="0.200000" d="M74.45,-49.7C81.98,-46.28 90.61,-42.41 98.5,-39 99.52,-38.56 100.56,-38.11 101.61,-37.66"/>
<polygon fill="#000000" fill-opacity="0.200000" stroke="#000000" stroke-width="2" stroke-opacity="0.200000" points="102.27,-39.67 106.99,-35.41 100.64,-35.8 102.27,-39.67"/>
</g>
<!-- src/router/index.ts -->
<g id="node12" class="node">
<title>src/router/index.ts</title>
<g id="a_node12"><a xlink:href="src/router/index.ts" xlink:title="index.ts">
<path fill="#ddfeff" stroke="black" d="M154.58,-67.88C154.58,-67.88 112.42,-67.88 112.42,-67.88 109.46,-67.88 106.5,-64.92 106.5,-61.96 106.5,-61.96 106.5,-56.04 106.5,-56.04 106.5,-53.08 109.46,-50.12 112.42,-50.12 112.42,-50.12 154.58,-50.12 154.58,-50.12 157.54,-50.12 160.5,-53.08 160.5,-56.04 160.5,-56.04 160.5,-61.96 160.5,-61.96 160.5,-64.92 157.54,-67.88 154.58,-67.88"/>
<text text-anchor="start" x="117.75" y="-55.33" font-family="Helvetica,sans-Serif" font-size="9.00">index.ts</text>
</a>
</g>
</g>
<!-- src/main.ts&#45;&gt;src/router/index.ts -->
<g id="edge12" class="edge">
<title>src/main.ts&#45;&gt;src/router/index.ts</title>
<path fill="none" stroke="#000000" stroke-width="2" stroke-opacity="0.200000" d="M80.74,-59C86.1,-59 91.8,-59 97.4,-59"/>
<polygon fill="#000000" fill-opacity="0.200000" stroke="#000000" stroke-width="2" stroke-opacity="0.200000" points="97.01,-61.1 103.01,-59 97.01,-56.9 97.01,-61.1"/>
</g>
<!-- src/store/index.ts -->
<g id="node13" class="node">
<title>src/store/index.ts</title>
<g id="a_node13"><a xlink:href="src/store/index.ts" xlink:title="index.ts">
<path fill="#ddfeff" stroke="black" d="M154.58,-127.88C154.58,-127.88 112.42,-127.88 112.42,-127.88 109.46,-127.88 106.5,-124.92 106.5,-121.96 106.5,-121.96 106.5,-116.04 106.5,-116.04 106.5,-113.08 109.46,-110.12 112.42,-110.12 112.42,-110.12 154.58,-110.12 154.58,-110.12 157.54,-110.12 160.5,-113.08 160.5,-116.04 160.5,-116.04 160.5,-121.96 160.5,-121.96 160.5,-124.92 157.54,-127.88 154.58,-127.88"/>
<text text-anchor="start" x="117.75" y="-115.33" font-family="Helvetica,sans-Serif" font-size="9.00">index.ts</text>
</a>
</g>
</g>
<!-- src/main.ts&#45;&gt;src/store/index.ts -->
<g id="edge13" class="edge">
<title>src/main.ts&#45;&gt;src/store/index.ts</title>
<path fill="none" stroke="#000000" stroke-width="2" stroke-opacity="0.200000" d="M67.62,-68.14C74.74,-73.3 83.47,-80.09 90.5,-87 94.56,-90.99 94.28,-93.18 98.5,-97 101.51,-99.73 104.9,-102.34 108.34,-104.76"/>
<polygon fill="#000000" fill-opacity="0.200000" stroke="#000000" stroke-width="2" stroke-opacity="0.200000" points="107.13,-106.48 113.29,-108.03 109.44,-102.97 107.13,-106.48"/>
</g>
<!-- src/router/route.ts -->
<g id="node14" class="node">
<title>src/router/route.ts</title>
<g id="a_node14"><a xlink:href="src/router/route.ts" xlink:title="route.ts">
<path fill="#ddfeff" stroke="black" d="M224.58,-67.88C224.58,-67.88 182.42,-67.88 182.42,-67.88 179.46,-67.88 176.5,-64.92 176.5,-61.96 176.5,-61.96 176.5,-56.04 176.5,-56.04 176.5,-53.08 179.46,-50.12 182.42,-50.12 182.42,-50.12 224.58,-50.12 224.58,-50.12 227.54,-50.12 230.5,-53.08 230.5,-56.04 230.5,-56.04 230.5,-61.96 230.5,-61.96 230.5,-64.92 227.54,-67.88 224.58,-67.88"/>
<text text-anchor="start" x="188.5" y="-55.33" font-family="Helvetica,sans-Serif" font-size="9.00">route.ts</text>
</a>
</g>
</g>
<!-- src/router/index.ts&#45;&gt;src/router/route.ts -->
<g id="edge14" class="edge">
<title>src/router/index.ts&#45;&gt;src/router/route.ts</title>
<path fill="none" stroke="#000000" stroke-width="2" stroke-opacity="0.200000" d="M160.99,-59C163.2,-59 165.47,-59 167.74,-59"/>
<polygon fill="#000000" fill-opacity="0.200000" stroke="#000000" stroke-width="2" stroke-opacity="0.200000" points="167.4,-61.1 173.4,-59 167.4,-56.9 167.4,-61.1"/>
</g>
<!-- src/views/AboutView.vue -->
<g id="node15" class="node">
<title>src/views/AboutView.vue</title>
<g id="a_node15"><a xlink:href="src/views/AboutView.vue" xlink:title="AboutView.vue">
<path fill="#41f083" stroke="black" d="M325.71,-46.88C325.71,-46.88 260.79,-46.88 260.79,-46.88 257.83,-46.88 254.88,-43.92 254.88,-40.96 254.88,-40.96 254.88,-35.04 254.88,-35.04 254.88,-32.08 257.83,-29.12 260.79,-29.12 260.79,-29.12 325.71,-29.12 325.71,-29.12 328.67,-29.12 331.62,-32.08 331.62,-35.04 331.62,-35.04 331.62,-40.96 331.62,-40.96 331.62,-43.92 328.67,-46.88 325.71,-46.88"/>
<text text-anchor="start" x="262.88" y="-34.33" font-family="Helvetica,sans-Serif" font-size="9.00">AboutView.vue</text>
</a>
</g>
</g>
<!-- src/router/route.ts&#45;&gt;src/views/AboutView.vue -->
<g id="edge15" class="edge">
<title>src/router/route.ts&#45;&gt;src/views/AboutView.vue</title>
<path fill="none" stroke="#000000" stroke-width="2" stroke-opacity="0.200000" d="M230.83,-52.7C235.61,-51.55 240.73,-50.33 245.9,-49.09"/>
<polygon fill="#000000" fill-opacity="0.200000" stroke="#000000" stroke-width="2" stroke-opacity="0.200000" points="246.3,-51.16 251.64,-47.72 245.32,-47.07 246.3,-51.16"/>
</g>
<!-- src/views/HomeView.vue -->
<g id="node16" class="node">
<title>src/views/HomeView.vue</title>
<g id="a_node16"><a xlink:href="src/views/HomeView.vue" xlink:title="HomeView.vue">
<path fill="#41f083" stroke="black" d="M326.08,-76.88C326.08,-76.88 260.42,-76.88 260.42,-76.88 257.46,-76.88 254.5,-73.92 254.5,-70.96 254.5,-70.96 254.5,-65.04 254.5,-65.04 254.5,-62.08 257.46,-59.12 260.42,-59.12 260.42,-59.12 326.08,-59.12 326.08,-59.12 329.04,-59.12 332,-62.08 332,-65.04 332,-65.04 332,-70.96 332,-70.96 332,-73.92 329.04,-76.88 326.08,-76.88"/>
<text text-anchor="start" x="262.5" y="-64.33" font-family="Helvetica,sans-Serif" font-size="9.00">HomeView.vue</text>
</a>
</g>
</g>
<!-- src/router/route.ts&#45;&gt;src/views/HomeView.vue -->
<g id="edge16" class="edge">
<title>src/router/route.ts&#45;&gt;src/views/HomeView.vue</title>
<path fill="none" stroke="#000000" stroke-width="2" stroke-opacity="0.200000" d="M230.83,-61.7C235.43,-62.17 240.35,-62.68 245.32,-63.19"/>
<polygon fill="#000000" fill-opacity="0.200000" stroke="#000000" stroke-width="2" stroke-opacity="0.200000" points="245.07,-65.27 251.25,-63.79 245.5,-61.09 245.07,-65.27"/>
</g>
<!-- src/views/HomeView.vue&#45;&gt;src/components/ClassStyleComponent.vue -->
<g id="edge17" class="edge">
<title>src/views/HomeView.vue&#45;&gt;src/components/ClassStyleComponent.vue</title>
<path fill="none" stroke="#000000" stroke-width="2" stroke-opacity="0.200000" d="M332.2,-60.3C341.91,-58.32 352.55,-56.16 362.92,-54.06"/>
<polygon fill="#000000" fill-opacity="0.200000" stroke="#000000" stroke-width="2" stroke-opacity="0.200000" points="363.11,-56.16 368.57,-52.91 362.27,-52.05 363.11,-56.16"/>
</g>
<!-- src/views/HomeView.vue&#45;&gt;src/components/HelloWorld.vue -->
<g id="edge18" class="edge">
<title>src/views/HomeView.vue&#45;&gt;src/components/HelloWorld.vue</title>
<path fill="none" stroke="#000000" stroke-width="2" stroke-opacity="0.200000" d="M332.2,-69.54C344.02,-70.02 357.22,-70.56 369.63,-71.06"/>
<polygon fill="#000000" fill-opacity="0.200000" stroke="#000000" stroke-width="2" stroke-opacity="0.200000" points="369.39,-73.15 375.47,-71.3 369.56,-68.96 369.39,-73.15"/>
</g>
<!-- src/shims&#45;tsx.d.ts -->
<g id="node17" class="node">
<title>src/shims&#45;tsx.d.ts</title>
<g id="a_node17"><a xlink:href="src/shims-tsx.d.ts" xlink:title="shims&#45;tsx.d.ts">
<path fill="#ccffcc" stroke="black" d="M82.71,-110.88C82.71,-110.88 23.79,-110.88 23.79,-110.88 20.83,-110.88 17.88,-107.92 17.88,-104.96 17.88,-104.96 17.88,-99.04 17.88,-99.04 17.88,-96.08 20.83,-93.12 23.79,-93.12 23.79,-93.12 82.71,-93.12 82.71,-93.12 85.67,-93.12 88.62,-96.08 88.62,-99.04 88.62,-99.04 88.62,-104.96 88.62,-104.96 88.62,-107.92 85.67,-110.88 82.71,-110.88"/>
<text text-anchor="start" x="25.88" y="-98.33" font-family="Helvetica,sans-Serif" font-size="9.00">shims&#45;tsx.d.ts</text>
</a>
</g>
</g>
<!-- src/shims&#45;vue.d.ts -->
<g id="node18" class="node">
<title>src/shims&#45;vue.d.ts</title>
<g id="a_node18"><a xlink:href="src/shims-vue.d.ts" xlink:title="shims&#45;vue.d.ts">
<path fill="#ccffcc" stroke="black" d="M84.58,-146.88C84.58,-146.88 21.92,-146.88 21.92,-146.88 18.96,-146.88 16,-143.92 16,-140.96 16,-140.96 16,-135.04 16,-135.04 16,-132.08 18.96,-129.12 21.92,-129.12 21.92,-129.12 84.58,-129.12 84.58,-129.12 87.54,-129.12 90.5,-132.08 90.5,-135.04 90.5,-135.04 90.5,-140.96 90.5,-140.96 90.5,-143.92 87.54,-146.88 84.58,-146.88"/>
<text text-anchor="start" x="24" y="-134.32" font-family="Helvetica,sans-Serif" font-size="9.00">shims&#45;vue.d.ts</text>
</a>
</g>
</g>
</g>
</svg>
